<?xml version="1.0" encoding="utf-8"?>
<!-- Generator: Adobe Illustrator 16.0.4, SVG Export Plug-In . SVG Version: 6.00 Build 0)  -->
<!DOCTYPE svg PUBLIC "-//W3C//DTD SVG 1.1//EN" "http://www.w3.org/Graphics/SVG/1.1/DTD/svg11.dtd">
<svg version="1.1" id="Layer_1" xmlns="http://www.w3.org/2000/svg" xmlns:xlink="http://www.w3.org/1999/xlink" x="0px" y="0px"
	 width="628.375px" height="171.5px" viewBox="0 0 628.375 171.5" enable-background="new 0 0 628.375 171.5" xml:space="preserve">
<text transform="matrix(1 0 0 1 26.7729 355.5557)" font-family="'ACaslonPro-Semibold'" font-size="99">Bounties Network</text>
<rect x="-7.5" y="242" fill="none" stroke="#000000" stroke-width="10" stroke-miterlimit="10" width="617.875" height="162"/>
<g>
	<path fill="#F28400" d="M58.332,125.447H32.896V44.778H58.09c11.022,0,17.805,5.935,17.805,17.079v8.721
		c0,6.904-2.665,12.112-9.569,13.566c7.268,1.938,9.932,6.904,9.932,13.687v10.538C76.258,119.633,69.354,125.447,58.332,125.447z
		 M61.481,62.947c0-3.634-1.574-5.814-5.329-5.814h-8.116v22.166h7.51c3.876,0,5.935-2.059,5.935-6.298V62.947z M61.724,96.741
		c0-4.239-2.06-6.42-5.936-6.42h-7.752v22.771h8.479c3.755,0,5.208-2.06,5.208-5.814V96.741z"/>
	<path fill="#F28400" d="M107.994,127.264c-13.081,0-22.771-8.357-22.771-20.47V44.778h15.261v62.016
		c0,4.724,2.665,7.389,7.51,7.389c4.966,0,7.631-2.665,7.631-7.389V44.778h14.656v62.016
		C130.281,118.906,121.076,127.264,107.994,127.264z"/>
	<path fill="#F28400" d="M177.279,125.447l-2.059-6.42c-2.665,5.33-8.237,8.236-14.777,8.236c-13.324,0-20.712-9.447-20.712-21.075
		V64.037c0-11.022,8.479-20.954,23.014-20.954c14.535,0,22.287,9.568,22.287,20.954v8.358h-14.414v-8.963
		c0-3.876-2.422-7.268-7.752-7.268s-7.873,3.513-7.873,7.51v42.999c0,3.997,2.786,7.51,7.994,7.51c5.33,0,7.994-3.513,7.994-7.51
		V95.408h-7.873V84.507h22.408v40.94H177.279z"/>
	<path fill="#F28400" d="M238.571,125.447h-25.436V44.778h25.194c11.022,0,17.805,5.935,17.805,17.079v8.721
		c0,6.904-2.665,12.112-9.569,13.566c7.268,1.938,9.932,6.904,9.932,13.687v10.538C256.498,119.633,249.594,125.447,238.571,125.447
		z M241.72,62.947c0-3.634-1.574-5.814-5.329-5.814h-8.116v22.166h7.51c3.876,0,5.935-2.059,5.935-6.298V62.947z M241.963,96.741
		c0-4.239-2.06-6.42-5.936-6.42h-7.752v22.771h8.479c3.755,0,5.208-2.06,5.208-5.814V96.741z"/>
	<path fill="#F28400" d="M287.749,127.264c-14.05,0-22.893-9.205-22.893-22.044V65.006c0-12.718,8.842-21.923,22.893-21.923
		c14.172,0,22.893,9.205,22.893,21.923v40.213C310.642,118.059,301.921,127.264,287.749,127.264z M295.501,64.037
		c0-4.724-2.786-7.873-7.752-7.873c-4.845,0-7.631,3.149-7.631,7.873v42.151c0,4.724,2.786,7.873,7.631,7.873
		c4.966,0,7.752-3.149,7.752-7.873V64.037z"/>
	<path fill="#F28400" d="M342.741,127.264c-13.081,0-22.771-8.357-22.771-20.47V44.778h15.262v62.016
		c0,4.724,2.665,7.389,7.51,7.389c4.966,0,7.631-2.665,7.631-7.389V44.778h14.656v62.016
		C365.028,118.906,355.823,127.264,342.741,127.264z"/>
	<path fill="#F28400" d="M410.33,125.447l-15.625-34.399l-5.692-12.839v47.238h-13.809V44.778h12.961l14.897,35.005l5.33,12.84
		V44.778h13.565v80.669H410.33z"/>
	<path fill="#F28400" d="M458.419,58.102v67.345h-15.141V58.102H428.38V44.778h44.816v13.324H458.419z"/>
	<path fill="#F28400" d="M479.617,125.447V44.778h15.02v80.669H479.617z"/>
	<path fill="#F28400" d="M505.176,125.447V44.778h38.518v12.96h-23.498v19.985h16.23v11.871h-16.23v22.408h23.498v13.444H505.176z"
		/>
	<path fill="#F28400" d="M571.676,127.264c-13.809,0-22.408-8.236-22.408-20.833v-5.571h13.808v4.724
		c0,5.935,2.786,9.205,8.236,9.205c5.33,0,7.995-3.149,7.995-8.115c0-6.419-4.119-10.78-12.113-16.715
		c-8.236-5.935-17.199-13.93-17.199-25.194c0-11.628,7.51-21.681,22.045-21.681c12.718,0,21.196,8.721,21.196,20.712v5.208h-13.687
		v-4.845c0-4.966-2.544-8.6-7.631-8.6c-4.361,0-7.268,2.786-7.268,7.268c0,6.783,3.997,10.295,12.96,16.836
		c9.569,7.146,16.352,14.414,16.352,25.315C593.962,117.938,584.999,127.264,571.676,127.264z"/>
</g>
</svg>
