<?xml version="1.0" encoding="utf-8"?>
<!-- Generator: Adobe Illustrator 16.0.4, SVG Export Plug-In . SVG Version: 6.00 Build 0)  -->
<!DOCTYPE svg PUBLIC "-//W3C//DTD SVG 1.1//EN" "http://www.w3.org/Graphics/SVG/1.1/DTD/svg11.dtd">
<svg version="1.1" id="Layer_1" xmlns="http://www.w3.org/2000/svg" xmlns:xlink="http://www.w3.org/1999/xlink" x="0px" y="0px"
	 width="681.969px" height="171.5px" viewBox="0 0 681.969 171.5" enable-background="new 0 0 681.969 171.5" xml:space="preserve">
<path fill="#FFFFFF" d="M159.641,83.737c0,23.367-16.666,40.371-39.414,40.371c-22.587,0-39.261-16.979-39.261-40.371
	c0-23.22,16.656-40.197,39.261-40.197C142.971,43.54,159.641,60.52,159.641,83.737z M141.415,83.737
	c0-15.734-9.971-23.842-21.187-23.842c-11.061,0-21.188,8.108-21.188,23.842c0,15.738,10.127,24.15,21.188,24.15
	C131.441,107.887,141.415,99.628,141.415,83.737z"/>
<path fill="#FFFFFF" d="M197.237,124c-23.269,0-33.314-13.468-33.314-30.292V45.872h18.055v43.856
	c0,9.347,4.369,17.299,15.271,17.299c10.439,0,15.892-7.01,15.892-16.976v-44.18h18.074l-0.087,47.959
	C231.133,110.755,221.735,124,197.237,124z"/>
<path fill="#FFFFFF" d="M338.95,45.872h15.737v16.049H338.95l-0.119,36.963c0,3.623,2.778,7.275,7.438,7.275
	c3.316,0,1.811,0,5.983,0.057v16.445c-2.812,0.213-7.64,0-14.177,0c-8.63,0-17.028-6.538-17.028-16.659l-0.021-44.096h-14.023
	V45.858h3.909c8.103,0,11.695-5.138,11.695-11.838V22.655h16.35L338.95,45.872L338.95,45.872z"/>
<path fill="#FFFFFF" d="M368.373,7.386c6.528,0,11.845,5.301,11.845,11.845c0,6.542-5.315,11.685-11.845,11.685
	c-6.402,0-11.695-5.133-11.695-11.685C356.685,12.684,361.98,7.386,368.373,7.386z M359.492,121.756V45.872h17.933v75.884H359.492
	L359.492,121.756z"/>
<path fill="#FFFFFF" d="M455.463,100.098c-4.042,13.237-16.046,23.985-34.277,23.985c-20.567,0-38.798-14.948-38.798-40.668
	c0-23.984,17.747-39.885,36.927-39.885c23.375,0,37.08,15.428,37.08,39.413c0,2.964-0.309,5.446-0.466,5.768h-55.47
	c0.486,11.534,9.52,19.782,20.739,19.782c10.914,0,16.521-5.771,19.015-13.24L455.463,100.098z M438.17,75.478
	c-0.314-8.886-6.234-16.833-18.705-16.833c-11.372,0-17.937,8.727-18.541,16.833H438.17z"/>
<path fill="#FFFFFF" d="M502.023,68.03c-0.714-3.694-3.941-11.115-14.07-11.115c-6.388,0-11.758,4.853-11.758,9.531
	c0,4.044,2.964,7.011,7.631,7.94l11.522,2.324c14.332,3.118,21.82,11.839,21.82,23.058c0,11.53-9.334,24.312-28.67,24.312
	c-21.964,0-30.511-15.42-31.438-24l15.851-4.843c0.616,6.851,5.787,14.539,15.459,14.539c7.479,0,11.37-4.049,11.37-8.727
	c0-4.05-2.803-7.168-8.882-8.418l-11.22-2.492c-13.404-2.97-20.415-11.702-20.415-22.125c0-13.261,12.136-24.473,27.872-24.473
	c24.413,0,27.662,17.381,28.505,20.357"/>
<path fill="#FFFFFF" d="M270.663,41.642c23.269,0,33.311,13.468,33.311,30.292v49.365h-18.06V75.913
	c0-9.344-4.364-17.297-15.261-17.297c-10.439,0-15.9,7.012-15.9,16.976v45.702h-18.074l0.094-49.497
	C236.757,54.892,246.162,41.642,270.663,41.642z"/>
<path fill="#FFFFFF" d="M33.402,1.878c23.503,0,33.956,16.339,33.956,29.721c0,12.921-8.255,22.051-8.255,22.051
	c7.816,6.13,18.056,15.929,18.056,31.776c0,20.711-15.9,39.248-37.183,39.248c-13.96-0.269-39.934,0-39.934,0
	c-0.094-8.793-0.056-4.562,0.414-122.797L33.402,1.878L33.402,1.878z M29.828,49.993h4.265c9.583,0,14.379-9.958,14.379-16.74
	c0-6.219-5.443-14.549-14.541-14.549H17.805v31.289v0.416v14.682c0,0,0,39.589,0,44.632c0-0.005,10.988,0.105,19.948,0
	c9.552-0.274,21.024-10.828,20.858-22.898c-0.16-11.873-10.377-21.63-20.562-21.63L23.684,65.14V49.993H29.828L29.828,49.993z"/>
<path fill="#FFFFFF" d="M502.023,68.03"/>
<polygon fill="#F6D34C" points="603.823,71.658 597.466,84.551 585.721,91.792 601.439,111.128 628.193,95.941 628.283,91.438 
	633.227,92.496 642.322,89.143 627.045,66.183 "/>
<g>
	<polygon fill="#0B0800" points="545.281,66.625 560.555,81.989 556.584,86.493 558.877,104.945 567.883,128.611 567.883,122.785 
		571.859,128.082 565.146,112.539 566.208,96.557 570.18,91.702 586.515,115.014 591.462,134.176 608.414,152.807 615.126,152.365 
		598.007,136.912 598.007,124.375 585.721,91.792 585.191,85.167 612.172,56.018 599.462,47.213 589.308,37.615 583.247,31.039 
		554.904,48.876 548.087,61.445 547.841,40.487 550.843,29.98 544.396,27.772 546.427,22.295 546.427,7.287 543.159,27.595 
		534.947,32.276 532.295,28.933 517.159,25.646 534.331,33.07 530.005,49.141 531.151,58.942 536.096,56.559 537.597,75.808 
		539.188,79.252 534.507,90.73 541.57,83.755 543.955,72.982 550.931,77.045 544.662,70.333 	"/>
	<polygon fill="#0B0800" points="601.439,111.128 604.97,116.338 608.326,118.018 611.771,127.465 627.752,140.268 634.021,139.971 
		613.185,126.904 613.097,122.078 619.718,124.284 630.666,124.551 639.586,106.803 643.118,94.881 642.322,89.143 633.227,92.496 
		628.283,91.438 628.193,95.941 	"/>
	<polygon fill="#F7BC2C" points="548.087,61.445 554.904,48.876 565.677,27.595 547.841,40.487 	"/>
	<polygon fill="#FEDC33" points="565.677,27.595 583.247,31.039 554.904,48.876 	"/>
	<polygon fill="#FEDC33" points="547.841,40.487 565.677,27.595 550.843,29.98 	"/>
	<polygon fill="#EACA42" points="627.045,66.183 642.322,89.143 633.227,92.496 628.283,91.438 	"/>
	<polygon fill="#FBE179" points="627.045,66.183 628.283,91.438 603.823,71.658 	"/>
	<polygon fill="#F6D34C" points="603.823,71.658 601.439,111.128 628.193,95.941 628.283,91.438 	"/>
	<polygon fill="#C79B22" points="603.823,71.658 601.439,111.128 585.721,91.792 597.466,84.551 	"/>
	<polygon fill="#64350B" points="627.045,66.183 603.823,71.658 597.466,84.551 585.721,91.792 585.191,85.167 612.172,56.018 	"/>
	<polygon opacity="0.9" fill="#554130" enable-background="new    " points="611.944,26.89 589.308,37.615 599.462,47.213 	"/>
	<polygon opacity="0.9" fill="#826C5B" enable-background="new    " points="628.283,47.696 599.462,47.213 612.172,56.018 	"/>
	<polygon opacity="0.5" fill="#554130" enable-background="new    " points="628.283,47.696 599.462,47.213 611.944,26.89 
		670.577,22.828 658.04,43.136 	"/>
	<polygon opacity="0.5" fill="#554130" enable-background="new    " points="658.04,43.136 670.577,22.828 681.969,27.595 	"/>
	<polygon opacity="0.5" fill="#826C5B" enable-background="new    " points="611.944,26.89 644.266,2.076 671.461,3.577 
		670.577,22.828 	"/>
	<polygon opacity="0.5" fill="#826C5B" enable-background="new    " points="628.283,47.696 599.462,47.213 611.944,26.89 
		670.577,22.828 658.04,43.136 	"/>
	<polygon fill="#D2C2AB" points="542.012,31.171 543.955,33.434 537.792,33.434 	"/>
</g>
<g>
	
		<linearGradient id="SVGID_1_" gradientUnits="userSpaceOnUse" x1="-48.3462" y1="10.6782" x2="-48.3462" y2="-41.6123" gradientTransform="matrix(1 0 0 -1 54 136.5)">
		<stop  offset="0" style="stop-color:#FFBE12"/>
		<stop  offset="0.3876" style="stop-color:#FFB21B"/>
		<stop  offset="0.4631" style="stop-color:#FFAD1F"/>
		<stop  offset="0.7237" style="stop-color:#FFA127"/>
		<stop  offset="0.984" style="stop-color:#FF9D2A"/>
	</linearGradient>
	<path fill="url(#SVGID_1_)" d="M5.624,160.484c3.029,0,5.465,2.438,5.465,5.408c0,2.969-2.437,5.405-5.465,5.405
		c-2.971,0-5.406-2.437-5.406-5.405C0.218,162.922,2.652,160.484,5.624,160.484z"/>
	
		<linearGradient id="SVGID_2_" gradientUnits="userSpaceOnUse" x1="12.1313" y1="10.6685" x2="12.1313" y2="-41.6095" gradientTransform="matrix(1 0 0 -1 54 136.5)">
		<stop  offset="0" style="stop-color:#FFBE12"/>
		<stop  offset="0.3876" style="stop-color:#FFB21B"/>
		<stop  offset="0.4631" style="stop-color:#FFAD1F"/>
		<stop  offset="0.7237" style="stop-color:#FFA127"/>
		<stop  offset="0.984" style="stop-color:#FF9D2A"/>
	</linearGradient>
	<path fill="url(#SVGID_2_)" d="M75.488,170.883l-19.129-29.882v29.882H48.16v-42.119h10.218l17.525,27.861v-27.861h8.198v42.119
		H75.488z"/>
	
		<linearGradient id="SVGID_3_" gradientUnits="userSpaceOnUse" x1="81.373" y1="10.6685" x2="81.373" y2="-41.6107" gradientTransform="matrix(1 0 0 -1 54 136.5)">
		<stop  offset="0" style="stop-color:#FFBE12"/>
		<stop  offset="0.3876" style="stop-color:#FFB21B"/>
		<stop  offset="0.4631" style="stop-color:#FFAD1F"/>
		<stop  offset="0.7237" style="stop-color:#FFA127"/>
		<stop  offset="0.984" style="stop-color:#FF9D2A"/>
	</linearGradient>
	<path fill="url(#SVGID_3_)" d="M122.184,170.883v-42.119h26.377v7.723h-18.178v9.623h16.455v7.308h-16.455v9.743h18.178v7.724
		L122.184,170.883L122.184,170.883z"/>
	
		<linearGradient id="SVGID_4_" gradientUnits="userSpaceOnUse" x1="145.5029" y1="10.6685" x2="145.5029" y2="-41.6095" gradientTransform="matrix(1 0 0 -1 54 136.5)">
		<stop  offset="0" style="stop-color:#FFBE12"/>
		<stop  offset="0.3876" style="stop-color:#FFB21B"/>
		<stop  offset="0.4631" style="stop-color:#FFAD1F"/>
		<stop  offset="0.7237" style="stop-color:#FFA127"/>
		<stop  offset="0.984" style="stop-color:#FF9D2A"/>
	</linearGradient>
	<path fill="url(#SVGID_4_)" d="M203.632,136.546v34.337h-8.258v-34.337h-13.307v-7.782h34.871v7.782H203.632z"/>
	
		<linearGradient id="SVGID_5_" gradientUnits="userSpaceOnUse" x1="224.0396" y1="10.6685" x2="224.0396" y2="-41.6095" gradientTransform="matrix(1 0 0 -1 54 136.5)">
		<stop  offset="0" style="stop-color:#FFBE12"/>
		<stop  offset="0.3876" style="stop-color:#FFB21B"/>
		<stop  offset="0.4631" style="stop-color:#FFAD1F"/>
		<stop  offset="0.7237" style="stop-color:#FFA127"/>
		<stop  offset="0.984" style="stop-color:#FF9D2A"/>
	</linearGradient>
	<path fill="url(#SVGID_5_)" d="M299.458,128.764h8.375l-11.644,42.119h-8.437l-9.625-30.002l-9.624,30.002h-8.554l-11.704-42.119
		h8.673l7.724,28.99l9.327-28.99h8.494l9.388,29.109L299.458,128.764z"/>
	
		<linearGradient id="SVGID_6_" gradientUnits="userSpaceOnUse" x1="305.6099" y1="10.6704" x2="305.6099" y2="-41.6096" gradientTransform="matrix(1 0 0 -1 54 136.5)">
		<stop  offset="0" style="stop-color:#FFBE12"/>
		<stop  offset="0.3876" style="stop-color:#FFB21B"/>
		<stop  offset="0.4631" style="stop-color:#FFAD1F"/>
		<stop  offset="0.7237" style="stop-color:#FFA127"/>
		<stop  offset="0.984" style="stop-color:#FF9D2A"/>
	</linearGradient>
	<path fill="url(#SVGID_6_)" d="M359.58,127.87c11.467,0,21.684,8.378,21.684,21.981c0,13.545-10.217,21.922-21.684,21.922
		c-11.405,0-21.624-8.377-21.624-21.922C337.956,136.248,348.175,127.87,359.58,127.87z M359.58,163.812
		c6.536,0,13.189-4.517,13.189-14.021c0-9.505-6.653-14.021-13.189-14.021c-6.475,0-13.129,4.516-13.129,14.021
		S353.105,163.812,359.58,163.812z"/>
	
		<linearGradient id="SVGID_7_" gradientUnits="userSpaceOnUse" x1="377.8203" y1="10.6685" x2="377.8203" y2="-41.6095" gradientTransform="matrix(1 0 0 -1 54 136.5)">
		<stop  offset="0" style="stop-color:#FFBE12"/>
		<stop  offset="0.3876" style="stop-color:#FFB21B"/>
		<stop  offset="0.4631" style="stop-color:#FFAD1F"/>
		<stop  offset="0.7237" style="stop-color:#FFA127"/>
		<stop  offset="0.984" style="stop-color:#FF9D2A"/>
	</linearGradient>
	<path fill="url(#SVGID_7_)" d="M429.386,154.664h-4.276v16.219h-8.258v-42.119h16.457c8.197,0,13.425,5.644,13.425,12.949
		c0,5.882-3.444,10.337-8.971,11.941l9.029,17.229h-9.147L429.386,154.664z M431.763,147.595c4.158,0,6.596-2.375,6.596-5.823
		c0-3.562-2.438-5.879-6.596-5.879h-6.653v11.702H431.763z"/>
	
		<linearGradient id="SVGID_8_" gradientUnits="userSpaceOnUse" x1="446.4082" y1="10.6685" x2="446.4082" y2="-41.6095" gradientTransform="matrix(1 0 0 -1 54 136.5)">
		<stop  offset="0" style="stop-color:#FFBE12"/>
		<stop  offset="0.3876" style="stop-color:#FFB21B"/>
		<stop  offset="0.4631" style="stop-color:#FFAD1F"/>
		<stop  offset="0.7237" style="stop-color:#FFA127"/>
		<stop  offset="0.984" style="stop-color:#FF9D2A"/>
	</linearGradient>
	<path fill="url(#SVGID_8_)" d="M495.865,153.416l-5.229,5.764v11.703h-8.199v-42.119h8.199v19.068l16.872-19.068h10.752
		l-16.692,18.355l16.812,23.764h-10.276L495.865,153.416z"/>
</g>
</svg>
