<?xml version="1.0" encoding="utf-8"?>
<!-- Generator: Adobe Illustrator 16.0.4, SVG Export Plug-In . SVG Version: 6.00 Build 0)  -->
<!DOCTYPE svg PUBLIC "-//W3C//DTD SVG 1.1//EN" "http://www.w3.org/Graphics/SVG/1.1/DTD/svg11.dtd">
<svg version="1.1" id="Layer_1" xmlns="http://www.w3.org/2000/svg" xmlns:xlink="http://www.w3.org/1999/xlink" x="0px" y="0px"
	 width="1065.484px" height="171.5px" viewBox="0 0 1065.484 171.5" enable-background="new 0 0 1065.484 171.5"
	 xml:space="preserve">
<path fill="#FFFFFF" d="M473.373,56.725c-2.252,0-4.076-1.794-4.076-4.009c0-2.212,1.824-4.006,4.076-4.006
	c2.249,0,4.072,1.794,4.072,4.006C477.445,54.931,475.622,56.725,473.373,56.725z M468.053,62.952c-2.061,0-3.732-1.643-3.732-3.673
	c0-2.029,1.673-3.673,3.732-3.673c2.062,0,3.734,1.644,3.734,3.673C471.787,61.309,470.115,62.952,468.053,62.952z M463.658,69.813
	c-1.875,0-3.395-1.496-3.395-3.339c0-1.846,1.52-3.342,3.395-3.342c1.876,0,3.396,1.496,3.396,3.342
	C467.054,68.318,465.534,69.813,463.658,69.813z M460.265,77.18c-1.688,0-3.056-1.345-3.056-3.006c0-1.658,1.368-3.003,3.056-3.003
	s3.056,1.346,3.056,3.003C463.319,75.834,461.951,77.18,460.265,77.18z M457.928,84.923c-1.501,0-2.717-1.197-2.717-2.673
	s1.216-2.673,2.717-2.673c1.499,0,2.717,1.197,2.717,2.673S459.427,84.923,457.928,84.923z M456.648,92.889
	c-1.312,0-2.377-1.046-2.377-2.34c0-1.29,1.063-2.337,2.377-2.337s2.378,1.047,2.378,2.337
	C459.026,91.843,457.963,92.889,456.648,92.889z M456.281,100.941c-1.125,0-2.038-0.896-2.038-2.004
	c0-1.105,0.913-2.006,2.038-2.006s2.038,0.899,2.038,2.006C458.319,100.047,457.406,100.941,456.281,100.941z M456.809,108.984
	c-0.936,0-1.695-0.746-1.695-1.668s0.761-1.67,1.695-1.67c0.939,0,1.699,0.748,1.699,1.67S457.748,108.984,456.809,108.984z
	 M458.232,116.925c-0.752,0-1.356-0.596-1.356-1.335c0-0.736,0.604-1.336,1.356-1.336c0.751,0,1.358,0.6,1.358,1.336
	C459.592,116.329,458.983,116.925,458.232,116.925z M460.534,124.675c-0.563,0-1.02-0.448-1.02-1.004
	c0-0.553,0.455-1.002,1.02-1.002c0.562,0,1.021,0.449,1.021,1.002C461.555,124.227,461.096,124.675,460.534,124.675z
	 M463.688,132.139c-0.372,0-0.678-0.298-0.678-0.664c0-0.369,0.305-0.668,0.678-0.668c0.375,0,0.681,0.299,0.681,0.668
	C464.367,131.841,464.062,132.139,463.688,132.139z M467.653,139.238c-0.188,0-0.339-0.147-0.339-0.333
	c0-0.188,0.149-0.334,0.339-0.334c0.188,0,0.339,0.146,0.339,0.334C467.992,139.091,467.842,139.238,467.653,139.238z
	 M530.074,54.783L530.074,54.783c0.003,0,0.006,0,0.009,0H530.074z M591.626,78.038c0,2.104-1.521,3.858-3.542,4.258
	c1.465,0.771,2.455,2.29,2.455,4.035c0,2.278-1.694,4.166-3.917,4.515c0.929,0.871,1.508,2.102,1.508,3.467
	c0,2.52-1.971,4.58-4.478,4.785c0.488,0.772,0.776,1.683,0.776,2.658c0,0.418-0.06,0.817-0.153,1.206
	c0.67-1.216,1.962-2.055,3.467-2.055c2.184,0,3.954,1.741,3.954,3.887c0,2.147-1.771,3.892-3.954,3.892
	c-2.184,0-3.954-1.744-3.954-3.892c0-0.255,0.029-0.505,0.078-0.748c-0.849,1.627-2.565,2.742-4.555,2.742
	c-0.02,0-0.036-0.002-0.059-0.002c0.171,0.501,0.268,1.034,0.279,1.591c0.753-0.704,1.764-1.146,2.888-1.146
	c2.309,0,4.182,1.844,4.182,4.119c0,2.271-1.873,4.118-4.182,4.118c-1.045,0-1.993-0.392-2.723-1.012
	c0.603,0.745,0.984,1.676,0.984,2.705c0,2.399-1.979,4.344-4.421,4.344c-0.899,0-1.742-0.269-2.439-0.728
	c0.129,0.421,0.199,0.867,0.199,1.328c0,2.528-2.086,4.578-4.651,4.578c-1.021,0-1.958-0.328-2.724-0.873
	c0,0.035,0.005,0.069,0.005,0.104c0,2.656-2.188,4.807-4.884,4.807c-1.206,0-2.309-0.431-3.156-1.144
	c-0.312,1.344-1.174,2.479-2.34,3.17c0.359-0.108,0.735-0.183,1.135-0.183c2.182,0,3.95,1.742,3.95,3.891
	c0,2.146-1.77,3.887-3.95,3.887c-2.184,0-3.956-1.74-3.956-3.887c0-1.34,0.689-2.52,1.736-3.218
	c-0.488,0.153-1.014,0.237-1.554,0.237c-1.435,0-2.731-0.582-3.657-1.521c-0.247,0.487-0.565,0.935-0.948,1.321
	c2.266,0.053,4.087,1.867,4.087,4.108c0,2.271-1.873,4.115-4.186,4.115c-2.213,0-4.008-1.692-4.156-3.832
	c-0.235,2.181-2.094,3.892-4.373,3.892c-2.14,0-3.922-1.496-4.327-3.485c-0.785,1.438-2.327,2.415-4.103,2.415
	c-2.315,0-4.236-1.67-4.587-3.853c-0.889,0.913-2.14,1.483-3.523,1.483c-2.562,0-4.658-1.939-4.865-4.405
	c-0.785,0.478-1.709,0.763-2.7,0.763c-0.427,0-0.832-0.056-1.227-0.151c1.237,0.659,2.091,1.929,2.091,3.409
	c0,2.148-1.771,3.892-3.955,3.892s-3.954-1.742-3.954-3.892c0-2.145,1.771-3.889,3.954-3.889c0.262,0,0.514,0.027,0.762,0.076
	c-1.654-0.835-2.787-2.523-2.787-4.479c0-0.021,0.002-0.039,0.002-0.06c-0.51,0.169-1.053,0.265-1.616,0.273
	c0.719,0.741,1.164,1.735,1.164,2.838c0,2.274-1.871,4.119-4.185,4.119s-4.188-1.845-4.188-4.119c0-1.022,0.396-1.951,1.025-2.673
	c-0.756,0.596-1.704,0.965-2.747,0.965c-2.438,0-4.417-1.944-4.417-4.346c0-0.891,0.274-1.717,0.738-2.402
	c-0.426,0.128-0.878,0.195-1.348,0.195c-2.572,0-4.652-2.049-4.652-4.573c0-1.007,0.333-1.931,0.887-2.685
	c-0.035,0.004-0.07,0.006-0.106,0.006c-2.696,0-4.882-2.148-4.882-4.803c0-1.185,0.438-2.269,1.156-3.103
	c-1.021-0.232-1.92-0.767-2.604-1.499c0.006,0.104,0.031,0.206,0.031,0.314c0,1.946-1.315,3.575-3.113,4.127
	c0.244-0.045,0.494-0.076,0.752-0.076c2.295,0,4.152,1.828,4.152,4.088c0,2.258-1.857,4.087-4.152,4.087
	c-2.293,0-4.154-1.829-4.154-4.087c0-1.825,1.227-3.356,2.904-3.881c-0.261,0.049-0.53,0.08-0.803,0.08
	c-2.438,0-4.416-1.945-4.416-4.342c0-1.689,0.991-3.144,2.427-3.858c-2.078-0.468-3.632-2.294-3.632-4.481
	c0-1.79,1.037-3.335,2.555-4.094c-1.57-0.814-2.642-2.432-2.642-4.296c0-1.96,1.186-3.642,2.884-4.409
	c-1.112-0.94-1.823-2.328-1.823-3.885c0-2.217,1.438-4.099,3.447-4.806c-0.667-0.89-1.067-1.985-1.067-3.174
	c0-0.055,0.006-0.108,0.009-0.163c-0.857,0.913-2.084,1.49-3.448,1.49c-0.104,0-0.206-0.008-0.309-0.017
	c0.81,0.786,1.314,1.878,1.314,3.084c0,2.394-1.976,4.337-4.41,4.337c-2.436,0-4.41-1.943-4.41-4.337c0-2.397,1.977-4.34,4.41-4.34
	c0.066,0,0.131,0.021,0.197,0.024c-0.919-0.847-1.496-2.044-1.496-3.381c0-2.554,2.104-4.626,4.702-4.626
	c0.05,0,0.095,0.006,0.145,0.009c-0.466-0.748-0.741-1.626-0.741-2.569c0-2.713,2.237-4.914,4.997-4.914
	c0.104,0,0.206,0.009,0.311,0.015c-0.177-0.519-0.275-1.075-0.275-1.655c0-2.872,2.369-5.204,5.288-5.204
	c0.209,0,0.411,0.015,0.612,0.039c-0.027-0.212-0.041-0.427-0.041-0.646c0-3.032,2.498-5.491,5.583-5.491
	c0.355,0,0.701,0.035,1.038,0.099c0.117-1.505,0.815-2.844,1.885-3.81c-0.094,0.006-0.188,0.014-0.279,0.014
	c-1.003,0-1.931-0.287-2.719-0.777c-0.087,2.505-2.175,4.511-4.746,4.511c-0.956,0-1.849-0.281-2.598-0.763
	c0.091,0.345,0.153,0.702,0.153,1.076c0,2.397-1.975,4.343-4.415,4.343c-2.435,0-4.411-1.946-4.411-4.343
	c0-2.4,1.978-4.343,4.411-4.343c0.848,0,1.626,0.247,2.296,0.65c-0.118-0.412-0.188-0.844-0.188-1.293
	c0-2.586,2.127-4.679,4.75-4.679c0.867,0,1.676,0.231,2.375,0.629c0-0.005-0.004-0.02-0.004-0.02c0-2.769,2.282-5.009,5.094-5.009
	c0.971,0,1.876,0.272,2.65,0.736c0.55-2.374,2.707-4.146,5.287-4.146c1.131,0,2.183,0.342,3.052,0.925
	c0.919-1.934,2.911-3.278,5.225-3.278c1.339,0,2.568,0.452,3.545,1.206c1.113-1.497,2.905-2.473,4.932-2.473
	c1.582,0,3.021,0.6,4.107,1.571c0.999-0.928,2.298-1.547,3.743-1.699c-0.277-0.284-0.52-0.591-0.73-0.927
	c-0.926,0.632-2.043,1.003-3.25,1.003c-1.916,0-3.612-0.937-4.645-2.365c-0.963,1.035-2.343,1.689-3.882,1.689
	c-1.716,0-3.238-0.814-4.197-2.063c-0.803,1.522-2.415,2.562-4.278,2.562c-1.633,0-3.072-0.8-3.944-2.023
	c-0.319,2.075-2.123,3.669-4.32,3.669c-2.42,0-4.38-1.93-4.38-4.313c0-2.38,1.963-4.31,4.384-4.31c1.423,0,2.676,0.674,3.476,1.707
	c0.264-2.371,2.309-4.215,4.789-4.215c1.479,0,2.801,0.658,3.686,1.69c0.825-1.794,2.66-3.046,4.791-3.046
	c1.65,0,3.119,0.745,4.082,1.914c1.045-1.278,2.646-2.099,4.446-2.099c1.898,0,3.579,0.919,4.614,2.327
	c1.04-0.814,2.356-1.304,3.789-1.304c2.24,0,4.193,1.191,5.252,2.963c0.859-0.412,1.814-0.649,2.835-0.649
	c2.606,0,4.853,1.525,5.868,3.716c0.548-0.14,1.112-0.221,1.704-0.221c3.029,0,5.595,1.945,6.484,4.635
	c0.128-0.006,0.256-0.02,0.388-0.02c3.521,0,6.444,2.499,7.057,5.792c3.574,0.539,6.317,3.539,6.388,7.189
	c2.896,1.157,4.938,3.947,4.938,7.212c0,0.501-0.051,0.988-0.146,1.461c1.982,1.489,3.265,3.825,3.265,6.463
	c0,0.563-0.058,1.11-0.167,1.641c0.359,0.844,0.571,1.76,0.628,2.717c0.211,1.458,1.722,14.001-7.913,24.22
	c-1.586,1.679-2.828,0.579-2.543-1.601c1.138-8.737-4.934-15.268-7.542-17.955c-0.035-0.035-0.077-0.064-0.107-0.102
	c-0.784-0.864-1.208-1.928-1.28-3.009c-0.157-0.174-0.299-0.354-0.438-0.543c-1.193,0.281-2.501,0.151-3.663-0.478h0.007
	c-1.407-0.757-2.307-2.067-2.577-3.502c-1.267,0.82-2.876,1.081-4.426,0.579c-1.488-0.489-2.603-1.588-3.14-2.914
	c-1.016,0.984-2.432,1.537-3.96,1.427c-1.594-0.116-2.963-0.939-3.814-2.134c-0.812,1.27-2.186,2.168-3.823,2.325
	c-1.498,0.154-2.912-0.354-3.941-1.276c-0.47,1.27-1.461,2.354-2.826,2.925c-1.47,0.604-3.063,0.484-4.372-0.186
	c-0.136,1.436-0.887,2.807-2.183,3.688c-1.256,0.855-2.766,1.09-4.143,0.754c0.215,1.438-0.187,2.957-1.257,4.117
	c-1.074,1.185-2.585,1.748-4.077,1.67c0.486,1.354,0.383,2.899-0.4,4.235c-0.744,1.249-1.957,2.073-3.295,2.375
	c0.828,1.16,1.162,2.644,0.785,4.123c-0.388,1.487-1.4,2.655-2.688,3.292c1.056,0.907,1.74,2.241,1.758,3.737
	c0.018,1.655-0.775,3.133-2.015,4.064c1.29,0.729,2.243,2.009,2.502,3.571c0.229,1.426-0.172,2.812-1.001,3.869
	c1.305,0.36,2.476,1.228,3.159,2.511c0.752,1.401,0.761,3.001,0.16,4.353c1.537,0.019,3.051,0.713,4.038,2.014
	c0.947,1.244,1.22,2.772,0.888,4.166c1.374-0.217,2.835,0.106,4.012,1.024c1.229,0.964,1.887,2.359,1.93,3.793
	c1.332-0.595,2.911-0.62,4.328,0.054c1.478,0.687,2.451,1.988,2.781,3.435c1.24-0.867,2.86-1.177,4.424-0.716
	c1.484,0.427,2.621,1.47,3.209,2.756c0.947-0.975,2.286-1.591,3.763-1.57c1.604,0.016,3.029,0.744,3.96,1.889
	c0.755-1.366,2.135-2.377,3.817-2.604c1.722-0.226,3.362,0.411,4.456,1.58c0.657-1.444,2.005-2.563,3.704-2.882
	c1.536-0.289,3.034,0.13,4.166,1.027c0.928-1.949,2.936-3.304,5.264-3.304c0.527,0,1.039,0.075,1.522,0.206
	c0.386-2.661,2.707-4.707,5.517-4.707c0.286,0,0.564,0.028,0.842,0.068c-0.011-0.122-0.02-0.246-0.02-0.37
	c0-2.908,2.393-5.265,5.347-5.265c0.075,0,0.154,0.008,0.229,0.014c-0.144-0.464-0.22-0.949-0.22-1.457
	c0-2.688,2.144-4.877,4.841-5.02c-0.423-0.713-0.671-1.539-0.671-2.427c0-2.432,1.842-4.438,4.226-4.754
	c-0.836-0.825-1.354-1.968-1.354-3.228c0-2.254,1.665-4.125,3.849-4.501c-1.363-0.739-2.297-2.15-2.297-3.788
	c0-2.305,1.826-4.169,4.128-4.32c-2.09-0.229-3.721-1.954-3.721-4.07c0-2.272,1.877-4.119,4.185-4.119
	c2.313,0,4.186,1.844,4.186,4.119c0,2.177-1.719,3.939-3.892,4.09C589.891,73.968,591.626,75.794,591.626,78.038z M489.227,29.945
	c-2.18,0-3.947-1.739-3.947-3.884s1.769-3.881,3.947-3.881c2.18,0,3.945,1.737,3.945,3.881
	C493.172,28.206,491.406,29.945,489.227,29.945z M481.803,33.653c-1.937,0-3.507-1.545-3.507-3.453c0-1.905,1.57-3.449,3.507-3.449
	c1.939,0,3.512,1.544,3.512,3.449C485.312,32.108,483.742,33.653,481.803,33.653z M474.945,38.21c-1.697,0-3.074-1.354-3.074-3.021
	c0-1.67,1.377-3.021,3.074-3.021c1.694,0,3.068,1.351,3.068,3.021C478.015,36.856,476.641,38.21,474.945,38.21z M468.656,43.451
	c-1.455,0-2.633-1.159-2.633-2.588c0-1.43,1.178-2.589,2.633-2.589c1.453,0,2.629,1.159,2.629,2.589
	C471.285,42.292,470.109,43.451,468.656,43.451z M463.007,49.312c-1.212,0-2.19-0.965-2.19-2.16c0-1.191,0.979-2.156,2.19-2.156
	s2.194,0.965,2.194,2.156C465.201,48.348,464.219,49.312,463.007,49.312z M458.067,55.722c-0.973,0-1.756-0.774-1.756-1.725
	c0-0.954,0.783-1.728,1.756-1.728c0.968,0,1.753,0.774,1.753,1.728C459.82,54.948,459.035,55.722,458.067,55.722z M453.884,62.607
	c-0.728,0-1.315-0.58-1.315-1.293c0-0.716,0.589-1.296,1.315-1.296c0.728,0,1.315,0.58,1.315,1.296
	C455.199,62.027,454.611,62.607,453.884,62.607z M450.51,69.886c-0.485,0-0.879-0.386-0.879-0.864c0-0.476,0.394-0.861,0.879-0.861
	c0.484,0,0.875,0.385,0.875,0.861C451.385,69.5,450.994,69.886,450.51,69.886z M447.971,77.466c-0.244,0-0.438-0.194-0.438-0.432
	c0-0.238,0.192-0.432,0.438-0.432s0.438,0.194,0.438,0.432C448.409,77.272,448.215,77.466,447.971,77.466z M586.432,65.189
	c-2.183,0-3.953-1.739-3.953-3.887c0-2.149,1.771-3.891,3.953-3.891c2.184,0,3.955,1.742,3.955,3.891
	C590.387,63.451,588.614,65.189,586.432,65.189z M584.378,56.821c-2.054,0-3.72-1.638-3.72-3.662c0-2.02,1.666-3.659,3.72-3.659
	c2.056,0,3.721,1.639,3.721,3.659C588.099,55.183,586.434,56.821,584.378,56.821z M581.254,48.782c-1.927,0-3.489-1.536-3.489-3.433
	c0-1.896,1.562-3.432,3.489-3.432c1.926,0,3.488,1.536,3.488,3.432C584.742,47.246,583.18,48.782,581.254,48.782z M577.121,41.21
	c-1.799,0-3.256-1.432-3.256-3.203c0-1.769,1.457-3.2,3.256-3.2c1.796,0,3.256,1.432,3.256,3.2
	C580.377,39.778,578.917,41.21,577.121,41.21z M572.051,34.236c-1.67,0-3.021-1.334-3.021-2.975c0-1.644,1.353-2.974,3.021-2.974
	s3.022,1.331,3.022,2.974C575.073,32.902,573.72,34.236,572.051,34.236z M566.132,27.962c-1.543,0-2.792-1.229-2.792-2.745
	c0-1.517,1.249-2.745,2.792-2.745c1.542,0,2.788,1.229,2.788,2.745C568.92,26.733,567.674,27.962,566.132,27.962z M559.459,22.503
	c-1.413,0-2.558-1.127-2.558-2.516c0-1.389,1.145-2.517,2.558-2.517c1.414,0,2.56,1.128,2.56,2.517
	C562.019,21.376,560.873,22.503,559.459,22.503z M552.15,17.95c-1.285,0-2.329-1.023-2.329-2.288c0-1.264,1.044-2.29,2.329-2.29
	c1.283,0,2.322,1.026,2.322,2.29C554.474,16.926,553.435,17.95,552.15,17.95z M544.317,14.384c-1.157,0-2.094-0.922-2.094-2.061
	c0-1.136,0.937-2.058,2.094-2.058c1.155,0,2.096,0.922,2.096,2.058C546.413,13.462,545.474,14.384,544.317,14.384z M536.111,11.854
	c-1.029,0-1.861-0.821-1.861-1.83c0-1.012,0.832-1.832,1.861-1.832c1.024,0,1.859,0.82,1.859,1.832
	C537.972,11.033,537.137,11.854,536.111,11.854z M527.674,10.369c-0.896,0-1.629-0.716-1.629-1.6c0-0.888,0.731-1.604,1.629-1.604
	c0.9,0,1.627,0.716,1.627,1.604C529.301,9.653,528.574,10.369,527.674,10.369z M519.146,9.777c-0.771,0-1.396-0.614-1.396-1.374
	c0-0.757,0.623-1.371,1.396-1.371c0.771,0,1.396,0.614,1.396,1.371C520.543,9.163,519.918,9.777,519.146,9.777z M510.632,10.071
	c-0.644,0-1.161-0.513-1.161-1.146c0-0.631,0.519-1.145,1.161-1.145c0.644,0,1.163,0.513,1.163,1.145
	C511.795,9.558,511.275,10.071,510.632,10.071z M502.223,11.242c-0.516,0-0.931-0.412-0.931-0.916c0-0.507,0.415-0.917,0.931-0.917
	c0.514,0,0.932,0.409,0.932,0.917C503.153,10.83,502.735,11.242,502.223,11.242z M494.004,13.277c-0.383,0-0.695-0.307-0.695-0.688
	c0-0.379,0.312-0.684,0.695-0.684c0.386,0,0.699,0.304,0.699,0.684C494.703,12.97,494.39,13.277,494.004,13.277z M486.076,16.149
	c-0.256,0-0.465-0.206-0.465-0.458s0.209-0.456,0.465-0.456c0.258,0,0.467,0.203,0.467,0.456S486.334,16.149,486.076,16.149z
	 M478.521,19.822c-0.128,0-0.232-0.101-0.232-0.229c0-0.124,0.105-0.229,0.232-0.229c0.131,0,0.233,0.104,0.233,0.229
	C478.756,19.721,478.652,19.822,478.521,19.822z M592.14,101.264c-2.055,0-3.723-1.642-3.723-3.662c0-2.02,1.668-3.656,3.723-3.656
	c2.057,0,3.721,1.637,3.721,3.656C595.86,99.622,594.195,101.264,592.14,101.264z M595.541,93.341c-1.927,0-3.488-1.536-3.488-3.433
	s1.562-3.434,3.488-3.434s3.489,1.537,3.489,3.434S597.468,93.341,595.541,93.341z M597.894,85.042
	c-1.797,0-3.256-1.433-3.256-3.201c0-1.771,1.459-3.203,3.256-3.203c1.799,0,3.258,1.432,3.258,3.203
	C601.15,83.609,599.691,85.042,597.894,85.042z M599.161,76.519c-1.671,0-3.024-1.333-3.024-2.974c0-1.644,1.354-2.978,3.024-2.978
	c1.672,0,3.026,1.334,3.026,2.978C602.188,75.185,600.833,76.519,599.161,76.519z M599.317,67.9c-1.542,0-2.792-1.232-2.792-2.748
	c0-1.517,1.25-2.745,2.792-2.745c1.543,0,2.792,1.229,2.792,2.745S600.86,67.9,599.317,67.9z M598.361,59.329
	c-1.416,0-2.562-1.128-2.562-2.52c0-1.389,1.146-2.516,2.562-2.516c1.41,0,2.56,1.127,2.56,2.516
	C600.921,58.201,599.771,59.329,598.361,59.329z M596.302,50.956c-1.282,0-2.326-1.026-2.326-2.29c0-1.261,1.044-2.288,2.326-2.288
	c1.285,0,2.326,1.026,2.326,2.288C598.628,49.93,597.587,50.956,596.302,50.956z M593.164,42.92c-1.154,0-2.094-0.92-2.094-2.061
	c0-1.136,0.938-2.058,2.094-2.058s2.092,0.922,2.092,2.058C595.256,42,594.319,42.92,593.164,42.92z M589.012,35.355
	c-1.028,0-1.856-0.818-1.856-1.83c0-1.011,0.831-1.829,1.856-1.829c1.03,0,1.858,0.818,1.858,1.829
	C590.87,34.534,590.042,35.355,589.012,35.355z M583.951,28.368c-0.902,0-1.631-0.716-1.631-1.601c0-0.883,0.729-1.603,1.631-1.603
	c0.896,0,1.625,0.719,1.625,1.603C585.576,27.652,584.849,28.368,583.951,28.368z M578.179,21.953c-0.771,0-1.395-0.614-1.395-1.374
	c0-0.757,0.623-1.371,1.395-1.371c0.772,0,1.397,0.614,1.397,1.371C579.576,21.339,578.951,21.953,578.179,21.953z M571.788,16.167
	c-0.646,0-1.163-0.51-1.163-1.142c0-0.632,0.518-1.145,1.163-1.145c0.639,0,1.16,0.513,1.16,1.145
	C572.948,15.657,572.427,16.167,571.788,16.167z M564.833,11.08c-0.514,0-0.933-0.412-0.933-0.917c0-0.504,0.419-0.916,0.933-0.916
	c0.516,0,0.929,0.412,0.929,0.916C565.762,10.668,565.349,11.08,564.833,11.08z M557.396,6.737c-0.387,0-0.698-0.307-0.698-0.687
	c0-0.38,0.312-0.688,0.698-0.688s0.694,0.307,0.694,0.688C558.092,6.43,557.783,6.737,557.396,6.737z M549.56,3.186
	c-0.26,0-0.465-0.206-0.465-0.458s0.205-0.459,0.465-0.459c0.258,0,0.462,0.207,0.462,0.459S549.816,3.186,549.56,3.186z
	 M541.413,0.458c-0.128,0-0.233-0.102-0.233-0.229c0-0.125,0.105-0.229,0.233-0.229c0.13,0,0.233,0.104,0.233,0.229
	C541.646,0.356,541.543,0.458,541.413,0.458z M565.679,138.091c-2.055,0-3.722-1.638-3.722-3.661c0-2.021,1.667-3.662,3.722-3.662
	c2.056,0,3.724,1.643,3.724,3.662C569.401,136.453,567.733,138.091,565.679,138.091z M573.618,134.786
	c-1.927,0-3.489-1.536-3.489-3.433c0-1.894,1.562-3.433,3.489-3.433c1.926,0,3.489,1.539,3.489,3.433
	C577.107,133.25,575.544,134.786,573.618,134.786z M581.081,130.49c-1.801,0-3.256-1.434-3.256-3.204c0-1.769,1.455-3.2,3.256-3.2
	c1.797,0,3.254,1.434,3.254,3.2C584.335,129.057,582.878,130.49,581.081,130.49z M587.938,125.273c-1.671,0-3.022-1.334-3.022-2.975
	c0-1.644,1.353-2.975,3.022-2.975c1.673,0,3.021,1.331,3.021,2.975C590.959,123.939,589.609,125.273,587.938,125.273z
	 M594.082,119.225c-1.542,0-2.791-1.229-2.791-2.744c0-1.517,1.249-2.746,2.791-2.746c1.539,0,2.788,1.229,2.788,2.746
	C596.87,117.996,595.621,119.225,594.082,119.225z M599.398,112.434c-1.414,0-2.561-1.129-2.561-2.521
	c0-1.39,1.146-2.517,2.561-2.517c1.412,0,2.56,1.127,2.56,2.517C601.958,111.305,600.812,112.434,599.398,112.434z M603.796,105.006
	c-1.283,0-2.325-1.023-2.325-2.285c0-1.263,1.042-2.285,2.325-2.285c1.282,0,2.323,1.022,2.323,2.285
	C606.119,103.982,605.078,105.006,603.796,105.006z M607.188,97.077c-1.156,0-2.092-0.921-2.092-2.06
	c0-1.138,0.936-2.061,2.092-2.061c1.158,0,2.094,0.923,2.094,2.061C609.281,96.156,608.346,97.077,607.188,97.077z M609.528,88.775
	c-1.026,0-1.861-0.82-1.861-1.832c0-1.009,0.835-1.831,1.861-1.831c1.027,0,1.857,0.821,1.857,1.831
	C611.387,87.955,610.557,88.775,609.528,88.775z M610.803,80.246c-0.897,0-1.627-0.719-1.627-1.602c0-0.885,0.729-1.604,1.627-1.604
	c0.9,0,1.63,0.719,1.63,1.604C612.433,79.527,611.703,80.246,610.803,80.246z M611.174,71.627c-0.771,0-1.396-0.614-1.396-1.374
	c0-0.756,0.627-1.374,1.396-1.374c0.771,0,1.395,0.618,1.395,1.374C612.567,71.014,611.945,71.627,611.174,71.627z M610.644,63.021
	c-0.645,0-1.163-0.51-1.163-1.143c0-0.632,0.52-1.145,1.163-1.145c0.642,0,1.162,0.513,1.162,1.145
	C611.806,62.511,611.284,63.021,610.644,63.021z M609.221,54.522c-0.514,0-0.933-0.412-0.933-0.917c0-0.506,0.419-0.916,0.933-0.916
	s0.93,0.409,0.93,0.916C610.149,54.11,609.733,54.522,609.221,54.522z M606.917,46.208c-0.385,0-0.694-0.308-0.694-0.687
	c0-0.377,0.311-0.684,0.694-0.684c0.388,0,0.696,0.307,0.696,0.684C607.613,45.9,607.305,46.208,606.917,46.208z M603.768,38.181
	c-0.26,0-0.468-0.206-0.468-0.458c0-0.251,0.208-0.458,0.468-0.458c0.255,0,0.466,0.206,0.466,0.458
	C604.232,37.975,604.021,38.181,603.768,38.181z M599.8,30.519c-0.132,0-0.235-0.104-0.235-0.229c0-0.127,0.104-0.229,0.235-0.229
	c0.126,0,0.23,0.102,0.23,0.229C600.03,30.415,599.926,30.519,599.8,30.519z M520.506,145.721c-2.055,0-3.723-1.64-3.723-3.662
	c0-2.02,1.668-3.66,3.723-3.66s3.721,1.642,3.721,3.66C524.227,144.081,522.561,145.721,520.506,145.721z M528.326,148.842
	c-1.924,0-3.486-1.535-3.486-3.433c0-1.896,1.562-3.431,3.486-3.431c1.929,0,3.492,1.535,3.492,3.431
	C531.818,147.307,530.255,148.842,528.326,148.842z M536.527,150.93c-1.797,0-3.256-1.435-3.256-3.203
	c0-1.768,1.459-3.203,3.256-3.203c1.799,0,3.256,1.436,3.256,3.203C539.783,149.495,538.326,150.93,536.527,150.93z
	 M544.964,151.945c-1.67,0-3.022-1.331-3.022-2.977c0-1.641,1.354-2.974,3.022-2.974c1.668,0,3.023,1.333,3.023,2.974
	C547.987,150.614,546.632,151.945,544.964,151.945z M553.492,151.872c-1.542,0-2.792-1.229-2.792-2.745
	c0-1.518,1.25-2.745,2.792-2.745c1.543,0,2.791,1.229,2.791,2.745S555.035,151.872,553.492,151.872z M561.969,150.701
	c-1.414,0-2.56-1.127-2.56-2.518c0-1.393,1.146-2.519,2.56-2.519c1.41,0,2.561,1.126,2.561,2.519
	C564.528,149.574,563.379,150.701,561.969,150.701z M570.245,148.441c-1.285,0-2.325-1.021-2.325-2.287
	c0-1.264,1.04-2.286,2.325-2.286c1.283,0,2.327,1.022,2.327,2.286C572.572,147.42,571.528,148.441,570.245,148.441z
	 M578.185,145.128c-1.159,0-2.096-0.921-2.096-2.058c0-1.139,0.937-2.06,2.096-2.06c1.151,0,2.091,0.921,2.091,2.06
	C580.274,144.207,579.336,145.128,578.185,145.128z M585.638,140.814c-1.024,0-1.86-0.817-1.86-1.828
	c0-1.012,0.836-1.832,1.86-1.832c1.029,0,1.861,0.82,1.861,1.832C587.499,139.997,586.667,140.814,585.638,140.814z
	 M592.508,135.605c-0.896,0-1.627-0.715-1.627-1.602c0-0.884,0.729-1.602,1.627-1.602c0.898,0,1.63,0.718,1.63,1.602
	C594.138,134.891,593.406,135.605,592.508,135.605z M598.799,129.701c-0.771,0-1.396-0.614-1.396-1.372
	c0-0.759,0.625-1.373,1.396-1.373c0.771,0,1.396,0.614,1.396,1.373C600.193,129.087,599.569,129.701,598.799,129.701z
	 M604.446,123.182c-0.646,0-1.163-0.51-1.163-1.143c0-0.631,0.519-1.145,1.163-1.145c0.644,0,1.163,0.514,1.163,1.145
	C605.609,122.672,605.09,123.182,604.446,123.182z M609.385,116.115c-0.512,0-0.928-0.41-0.928-0.918
	c0-0.504,0.416-0.912,0.928-0.912c0.515,0,0.932,0.408,0.932,0.912C610.315,115.705,609.898,116.115,609.385,116.115z
	 M613.564,108.564c-0.383,0-0.692-0.307-0.692-0.688c0-0.376,0.311-0.684,0.692-0.684c0.389,0,0.697,0.308,0.697,0.684
	C614.263,108.259,613.953,108.564,613.564,108.564z M616.942,100.632c-0.257,0-0.464-0.206-0.464-0.459
	c0-0.251,0.207-0.457,0.464-0.457c0.259,0,0.467,0.206,0.467,0.457C617.409,100.426,617.201,100.632,616.942,100.632z
	 M619.484,92.387c-0.131,0-0.233-0.104-0.233-0.229c0-0.126,0.104-0.229,0.233-0.229c0.128,0,0.23,0.103,0.23,0.229
	C619.716,92.282,619.612,92.387,619.484,92.387z M486.197,127.674c-2.15,0-3.896-1.716-3.896-3.831c0-2.114,1.745-3.833,3.896-3.833
	c2.15,0,3.894,1.719,3.894,3.833C490.091,125.958,488.348,127.674,486.197,127.674z M490.334,134.761
	c-2.009,0-3.635-1.602-3.635-3.577s1.626-3.576,3.635-3.576c2.006,0,3.635,1.602,3.635,3.576
	C493.969,133.159,492.34,134.761,490.334,134.761z M495.401,141.253c-1.864,0-3.376-1.485-3.376-3.321
	c0-1.832,1.512-3.318,3.376-3.318c1.863,0,3.374,1.486,3.374,3.318C498.775,139.768,497.266,141.253,495.401,141.253z
	 M501.32,147.04c-1.722,0-3.115-1.371-3.115-3.063s1.395-3.067,3.115-3.067c1.72,0,3.117,1.375,3.117,3.067
	S503.04,147.04,501.32,147.04z M507.99,152.014c-1.576,0-2.854-1.258-2.854-2.81s1.277-2.81,2.854-2.81
	c1.578,0,2.855,1.258,2.855,2.81C510.847,150.756,509.568,152.014,507.99,152.014z M515.305,156.084
	c-1.435,0-2.596-1.143-2.596-2.554c0-1.413,1.161-2.554,2.596-2.554c1.434,0,2.595,1.141,2.595,2.554
	C517.898,154.941,516.737,156.084,515.305,156.084z M523.133,159.169c-1.29,0-2.337-1.028-2.337-2.3c0-1.27,1.047-2.299,2.337-2.299
	c1.289,0,2.336,1.029,2.336,2.299C525.469,158.141,524.422,159.169,523.133,159.169z M531.339,161.213
	c-1.146,0-2.076-0.914-2.076-2.044c0-1.128,0.932-2.044,2.076-2.044c1.147,0,2.079,0.916,2.079,2.044
	C533.418,160.299,532.486,161.213,531.339,161.213z M539.777,162.211c-1.003,0-1.816-0.798-1.816-1.785
	c0-0.988,0.813-1.787,1.816-1.787c1.002,0,1.817,0.799,1.817,1.787C541.596,161.413,540.779,162.211,539.777,162.211z
	 M548.306,162.318c-0.86,0-1.56-0.685-1.56-1.529c0-0.848,0.698-1.534,1.56-1.534c0.858,0,1.558,0.687,1.558,1.534
	C549.862,161.635,549.164,162.318,548.306,162.318z M556.82,161.546c-0.717,0-1.301-0.571-1.301-1.278
	c0-0.705,0.584-1.274,1.301-1.274c0.716,0,1.299,0.569,1.299,1.274C558.119,160.975,557.536,161.546,556.82,161.546z
	 M565.227,159.891c-0.569,0-1.037-0.459-1.037-1.022c0-0.562,0.468-1.021,1.037-1.021c0.575,0,1.04,0.457,1.04,1.021
	S565.802,159.891,565.227,159.891z M573.441,157.368c-0.429,0-0.776-0.343-0.776-0.765c0-0.424,0.349-0.767,0.776-0.767
	c0.434,0,0.779,0.342,0.779,0.767C574.222,157.025,573.875,157.368,573.441,157.368z M581.374,154.01
	c-0.285,0-0.519-0.228-0.519-0.51s0.232-0.514,0.519-0.514c0.29,0,0.521,0.23,0.521,0.514S581.664,154.01,581.374,154.01z
	 M588.931,149.854c-0.146,0-0.262-0.112-0.262-0.254s0.116-0.256,0.262-0.256c0.143,0,0.26,0.114,0.26,0.256
	C589.189,149.74,589.072,149.854,588.931,149.854z M469.559,91.4c-2.272,0-4.116-1.814-4.116-4.049c0-2.235,1.844-4.046,4.116-4.046
	c2.271,0,4.113,1.811,4.113,4.046C473.672,89.586,471.83,91.4,469.559,91.4z M468.291,99.408c-2.109,0-3.82-1.686-3.82-3.76
	c0-2.075,1.711-3.76,3.82-3.76c2.11,0,3.82,1.685,3.82,3.76C472.111,97.723,470.401,99.408,468.291,99.408z M468.132,107.507
	c-1.944,0-3.524-1.55-3.524-3.466s1.58-3.471,3.524-3.471c1.948,0,3.527,1.555,3.527,3.471S470.08,107.507,468.132,107.507z
	 M469.092,115.561c-1.786,0-3.234-1.422-3.234-3.18c0-1.759,1.448-3.184,3.234-3.184c1.785,0,3.231,1.425,3.231,3.184
	C472.323,114.139,470.877,115.561,469.092,115.561z M471.155,123.416c-1.626,0-2.942-1.295-2.942-2.895
	c0-1.597,1.316-2.889,2.942-2.889c1.623,0,2.939,1.292,2.939,2.889C474.096,122.121,472.778,123.416,471.155,123.416z
	 M474.289,130.934c-1.461,0-2.646-1.164-2.646-2.604c0-1.434,1.187-2.6,2.646-2.6s2.646,1.166,2.646,2.6
	C476.936,129.77,475.75,130.934,474.289,130.934z M478.439,137.979c-1.3,0-2.351-1.035-2.351-2.312c0-1.278,1.051-2.312,2.351-2.312
	s2.352,1.033,2.352,2.312C480.791,136.941,479.739,137.979,478.439,137.979z M483.502,144.448c-1.135,0-2.055-0.904-2.055-2.023
	c0-1.118,0.92-2.022,2.055-2.022c1.137,0,2.059,0.904,2.059,2.022C485.561,143.544,484.639,144.448,483.502,144.448z
	 M489.273,150.348c-0.976,0-1.767-0.777-1.767-1.736c0-0.957,0.791-1.733,1.767-1.733c0.975,0,1.762,0.776,1.762,1.733
	S490.248,150.348,489.273,150.348z M495.665,155.614c-0.812,0-1.47-0.646-1.47-1.447c0-0.796,0.658-1.442,1.47-1.442
	s1.47,0.646,1.47,1.442C497.135,154.968,496.479,155.614,495.665,155.614z M502.619,160.184c-0.648,0-1.174-0.517-1.174-1.156
	c0-0.639,0.524-1.156,1.174-1.156s1.178,0.518,1.178,1.156C503.797,159.667,503.27,160.184,502.619,160.184z M510.059,164.01
	c-0.486,0-0.882-0.389-0.882-0.867c0-0.478,0.396-0.865,0.882-0.865s0.882,0.388,0.882,0.865
	C510.94,163.621,510.545,164.01,510.059,164.01z M517.894,167.045c-0.323,0-0.589-0.262-0.589-0.58s0.266-0.58,0.589-0.58
	c0.325,0,0.59,0.262,0.59,0.58S518.219,167.045,517.894,167.045z M526.039,169.251c-0.161,0-0.293-0.131-0.293-0.29
	s0.132-0.287,0.293-0.287c0.163,0,0.295,0.128,0.295,0.287S526.202,169.251,526.039,169.251z"/>
</svg>
