<?xml version="1.0" encoding="utf-8"?>
<!-- Generator: Adobe Illustrator 16.0.4, SVG Export Plug-In . SVG Version: 6.00 Build 0)  -->
<!DOCTYPE svg PUBLIC "-//W3C//DTD SVG 1.1//EN" "http://www.w3.org/Graphics/SVG/1.1/DTD/svg11.dtd">
<svg version="1.1" id="Layer_1" xmlns="http://www.w3.org/2000/svg" xmlns:xlink="http://www.w3.org/1999/xlink" x="0px" y="0px"
	 width="1065.484px" height="171.5px" viewBox="0 0 1065.484 171.5" enable-background="new 0 0 1065.484 171.5"
	 xml:space="preserve">
<g>
	<path fill="#FFFFFF" d="M522.131,46.126l6.061,4.748c1.616-3.03,2.929-5.757,7.071-11.716
		C527.384,42.49,522.131,46.126,522.131,46.126z"/>
	<path fill="#FFFFFF" d="M472.942,38.753c-0.101-1.415-0.404-4.445-0.809-5.556c-1.01-2.929-5.05-9.798-6.868-12.827
		c-0.101-0.202-0.404,0-0.303,0.202l6.667,19.09c0.202-0.102,0.404-0.304,0.504-0.404C472.336,39.056,472.639,38.854,472.942,38.753
		z"/>
	<path fill="#FFFFFF" d="M465.973,45.722c-0.404,0.404-1.111,0-1.111,0s-5.252-5.556-6.262-6.161
		c-2.929-1.818-11.918-3.03-15.15-3.434c-0.202,0-0.303,0.303-0.102,0.303c0,0,21.211,11.111,21.312,10.908
		C465.064,46.732,465.569,46.228,465.973,45.722z"/>
	<path fill="#FFFFFF" d="M556.877,158.141c1.616,1.11,5.051,1.009,6.97,0.909l2.222-0.404c0.202,0,0.202-0.303,0.102-0.303
		c-3.435-1.516-16.97-8.99-19.898-14.142c-0.606-1.11,1.717-8.889,1.717-8.889l-10.605-3.231c0,0,3.839,10.808,5.454,13.029
		C545.161,148.343,552.635,155.211,556.877,158.141z"/>
	<path fill="#FFFFFF" d="M565.261,103.599c-1.212-0.909-1.313,0-4.646,8.686c-3.333,8.586-12.424,19.999-27.17,16.868
		c0.504,0.706,1.211,1.212,2.019,1.918c0.708,0.708,3.738,2.931,3.738,2.931s6.363,5.555,12.322,6.767
		c14.646,2.93,20.908-13.636,22.827-18.584c1.213-3.132,2.323-9.192,2.525-13.031c0-0.706,0-2.727-0.404-2.322
		c-1.415,1.516-3.333,1.414-5.556,0.808C568.796,107.133,565.967,104.204,565.261,103.599z"/>
	<path fill="#FFFFFF" d="M605.258,6.735L605.258,6.735c-1.312-1.616-2.425-2.828-3.939-3.636c-4.039-2.626-9.695-3.333-18.686,0.1
		c-9.395,3.536-16.666,8.283-23.029,13.737c-19.695,15.352-27.573,35.957-27.573,35.957s3.534,2.121,4.948,2.828
		c3.334,1.92,8.586,4.95,8.586,4.95s24.342,1.212,41.209-9.292c7.879-4.949,19.494-24.342,20.302-36.766
		C607.48,11.482,606.976,8.856,605.258,6.735z"/>
	<path fill="#FFFFFF" d="M618.691,36.33c-0.201-3.333-10.402-7.374-11.413-5.152c-3.232,6.868-8.181,17.474-18.786,23.534
		C598.188,51.984,619.297,46.126,618.691,36.33z"/>
	<path fill="#FFFFFF" d="M533.343,71.276c-13.231,6.667-17.07,19.192-16.867,27.877c0.101,2.425,0.404,4.849,1.01,6.869
		c0.808,2.827,0.909,3.333,2.02,5.857c1.716-14.04,6.766-25.452,16.261-32.523c5.96-4.444,11.01-5.454,14.849-5.454
		c1.414-0.1,3.838,0.101,4.241,0.304C553.442,72.287,545.867,64.812,533.343,71.276z"/>
	<path fill="#FFFFFF" d="M563.038,81.175c-2.323-2.222-3.03-2.322-4.949-3.434c-2.929-0.404-8.484-0.505-14.443,2.424
		c-10.101,5.05-15.251,13.838-19.191,25.858c-1.516,4.545-2.02,10.302-1.918,10.402c3.333,4.949,4.848,7.88,9.292,8.99
		c12.826,3.131,21.614-8.688,25.15-16.767c1.818-4.242,4.746-12.323,5.555-12.727c1.414-0.809,4.242,3.636,6.061,5.556
		c2.424,2.424,4.344,3.333,6.666,2.827C581.623,102.891,567.685,85.519,563.038,81.175z"/>
	<path fill="#FFFFFF" d="M546.07,170.967c-2.525-1.716-15.959-11.211-18.081-16.464c-1.312-3.13,0.606-10.2,0-13.533
		c-0.302-1.516-1.616-6.969-2.827-10.303c-2.325-6.263-9.292-18.08-11.212-24.443c-0.304-1.11-4.141-16.564,4.445-28.079
		c11.413-15.352,22.119-13.938,26.059-12.727c-2.424-3.434-13.333-6.362-17.07-9.191c-4.748-3.636-12.222-11.514-17.878-14.544
		c-1.413-0.808-2.727-1.313-4.141-1.717c-1.413-0.404-2.929-0.303-4.645-0.404c-2.526,0-18.182,1.515-25.251,20.807
		c-4.646,12.727-0.909,18.181,0.101,19.898c0.303,0.505,0.707,1.011,1.212,1.515c3.333,3.536,10.101,8.688,10.404,13.939
		c0.101,2.423-4.041,5.354-4.444,7.777c-0.808,5.353,3.232,16.868,4.747,22.02c1.616,5.15,7.878,20.2,7.878,20.2
		c-0.101-1.312,0.605-2.524,0.909-3.03c0,0,2.323,1.011,2.929,1.718l0.505,0.706c0,0-0.102-0.303-0.405-0.808
		c-1.413-2.828-5.353-10.707-7.069-14.444c-0.606-1.312-1.414-3.333-2.121-4.948c-1.414-3.232-0.102-11.516,1.414-14.646
		c1.717-3.435,6.262-4.545,6.262-4.545s14.444,18.18,17.676,25.149c2.223,4.848,2.93,15.959,5.354,20.706
		c2.221,4.444,10.909,13.029,15.454,17.474c1.817,1.717,4.241,2.626,6.768,2.424l2.827-0.201
		C546.07,171.271,546.17,171.068,546.07,170.967z"/>
	<path fill="#FFFFFF" d="M473.245,82.993c-0.504-0.606-1.212-1.516-1.414-1.919c-0.606-1.111-2.425-4.242-2.122-9.595
		c-0.202-2.424-0.606-0.505-0.606-0.303c-1.313,3.232-1.212,9.696,0.505,14.343c1.818,4.746-1.918,9.595-3.232,12.524
		c-1.111,2.525-1.313,3.435-0.303,2.322c1.617-1.515,7.273-6.768,8.283-8.585c0,0,1.111-1.516,1.212-6.262
		C474.76,84.609,473.953,83.7,473.245,82.993z"/>
	<path fill="#FFFFFF" d="M486.376,39.864c3.333-1.717,6.06-1.918,4.949-1.818c-3.434,0.102-7.474,0.606-11.312,3.334
		c-0.101,0.1-0.505-0.203-1.01-0.607c-1.313-1.313-4.243-2.222-6.061-1.918c-3.333,0.504-6.869,1.414-10.202,6.565
		c-3.434,5.353-9.393,23.231-3.939,26.463c1.818,1.011,6.666-2.929,10.908-5.757c0.808-2.121,1.919-6.262,3.031-8.99
		C477.892,44.208,483.346,41.784,486.376,39.864z M471.327,45.419c-1.111,0.707-4.041,1.515-4.748,0
		c-0.404-0.808,1.616-2.02,2.929-1.818C470.215,43.804,472.134,44.914,471.327,45.419z"/>
</g>
</svg>
