<?xml version="1.0" encoding="utf-8"?>
<!-- Generator: Adobe Illustrator 16.0.4, SVG Export Plug-In . SVG Version: 6.00 Build 0)  -->
<!DOCTYPE svg PUBLIC "-//W3C//DTD SVG 1.1//EN" "http://www.w3.org/Graphics/SVG/1.1/DTD/svg11.dtd">
<svg version="1.1" id="Layer_1" xmlns="http://www.w3.org/2000/svg" xmlns:xlink="http://www.w3.org/1999/xlink" x="0px" y="0px"
	 width="1065.484px" height="171.5px" viewBox="0 0 1065.484 171.5" enable-background="new 0 0 1065.484 171.5"
	 xml:space="preserve">
<path fill="#FFFFFF" d="M532.416,72.075l11.283-11.283c0.765-0.767,2.007-0.767,2.773,0l11.229,11.228
	c0.765,0.767,0.765,2.01,0,2.774l0,0l-11.282,11.283c-0.768,0.768-2.009,0.768-2.775,0l-11.228-11.228
	C531.65,74.083,531.65,72.841,532.416,72.075L532.416,72.075z"/>
<path fill="#FFFFFF" d="M513.668,90.714l11.226-11.226c0.767-0.767,2.009-0.767,2.776,0l11.283,11.282
	c0.765,0.767,0.765,2.009,0,2.775l0,0l-11.228,11.227c-0.767,0.767-2.008,0.767-2.775,0l0,0l-11.281-11.283
	C512.901,92.723,512.901,91.479,513.668,90.714L513.668,90.714z"/>
<path fill="#FFFFFF" d="M494.915,72.075l11.227-11.229c0.766-0.767,2.009-0.767,2.776,0l0,0l11.227,11.226
	c0.767,0.767,0.767,2.01,0.001,2.777l0,0l-11.227,11.228c-0.766,0.768-2.009,0.768-2.775,0l0,0L494.915,74.85
	C494.149,74.083,494.149,72.841,494.915,72.075L494.915,72.075z"/>
<path fill="#FFFFFF" d="M477.094,89.787l10.488-10.488c0.766-0.767,2.009-0.767,2.775,0l11.282,11.282
	c0.766,0.768,0.766,2.009,0,2.776l-10.488,10.487c-0.767,0.766-2.008,0.766-2.775,0l0,0l-11.281-11.283
	C476.327,91.795,476.327,90.552,477.094,89.787L477.094,89.787z"/>
<path fill="#FFFFFF" d="M550.924,90.581l11.281-11.282c0.767-0.767,2.01-0.767,2.776,0l10.487,10.488
	c0.766,0.767,0.766,2.008,0,2.774l0,0l-11.283,11.283c-0.765,0.766-2.007,0.766-2.774,0l0,0l-10.487-10.487
	C550.157,92.59,550.157,91.348,550.924,90.581L550.924,90.581z"/>
<path fill="#FFFFFF" d="M526.918,2.162c-46.07,0-83.419,37.349-83.419,83.419c0,46.071,37.349,83.419,83.419,83.419
	c46.071,0,83.419-37.348,83.419-83.419C610.337,39.511,572.989,2.162,526.918,2.162z M517.804,43.629l7.203-7.204
	c0.703-0.704,1.846-0.704,2.549,0l7.203,7.204c0.703,0.705,0.703,1.844,0,2.548l-1.955,1.957c-0.704,0.704-1.846,0.704-2.551,0
	l-2.697-2.698c-0.704-0.705-1.847-0.705-2.549,0l-2.699,2.698c-0.704,0.704-1.845,0.704-2.549,0l-1.955-1.957
	C517.099,45.474,517.099,44.334,517.804,43.629z M534.759,132.782l-1.955,1.954c-0.704,0.704-1.846,0.704-2.551,0l-2.697-2.699
	c-0.704-0.703-1.847-0.703-2.549,0l-2.699,2.699c-0.704,0.704-1.845,0.704-2.549,0l-1.955-1.954c-0.705-0.705-0.705-1.847,0-2.551
	l7.203-7.202c0.703-0.704,1.846-0.704,2.549,0l7.203,7.202C535.462,130.936,535.462,132.077,534.759,132.782z M584.479,92.562
	l-20.291,20.291c-0.767,0.767-2.009,0.767-2.776,0l-14.899-14.898c-0.766-0.767-2.009-0.767-2.773,0l-15.977,15.976
	c-0.766,0.765-2.009,0.765-2.774,0l-16.068-16.068c-0.767-0.767-2.009-0.767-2.775-0.001v0.001l-14.993,14.991
	c-0.766,0.767-2.008,0.767-2.775,0l-20.292-20.291c-0.766-0.767-0.766-2.01,0-2.774l38.118-38.116
	c0.704-0.706,1.846-0.708,2.553-0.005l16.138,16.037c0.766,0.767,2.009,0.767,2.775,0l16.07-16.068c0.767-0.767,2.01-0.767,2.777,0
	l21.678,21.678l-0.096,0.093l16.381,16.381C585.245,90.552,585.245,91.795,584.479,92.562z"/>
</svg>
