<?xml version="1.0" encoding="utf-8"?>
<!-- Generator: Adobe Illustrator 16.0.4, SVG Export Plug-In . SVG Version: 6.00 Build 0)  -->
<!DOCTYPE svg PUBLIC "-//W3C//DTD SVG 1.1//EN" "http://www.w3.org/Graphics/SVG/1.1/DTD/svg11.dtd">
<svg version="1.1" id="Layer_1" xmlns="http://www.w3.org/2000/svg" xmlns:xlink="http://www.w3.org/1999/xlink" x="0px" y="0px"
	 width="635.909px" height="171.5px" viewBox="0 0 635.909 171.5" enable-background="new 0 0 635.909 171.5" xml:space="preserve">
<path id="Bounties" fill="#FFFFFF" d="M33.505,102.009c2.694,0,4.898-0.368,6.735-0.978c1.714-0.622,3.185-1.479,4.164-2.574
	c1.102-1.103,1.836-2.326,2.205-3.797c0.369-1.467,0.612-2.815,0.612-4.416c0-1.591-0.244-3.181-0.734-4.406
	c-0.49-1.347-1.224-2.452-2.327-3.312c-1.102-0.979-2.452-1.592-4.286-2.081c-1.715-0.488-3.919-0.732-6.491-0.732H19.054v22.413
	L33.505,102.009L33.505,102.009z M19.054,46.041v22.045h11.144c2.328,0,4.408-0.247,6.369-0.612c1.96-0.367,3.43-0.98,4.654-1.836
	c1.224-0.857,2.204-1.959,2.816-3.429c0.613-1.469,0.98-3.062,0.98-5.145c0-2.083-0.246-3.795-0.858-5.144
	c-0.49-1.466-1.347-2.574-2.452-3.43c-1.102-0.855-2.57-1.471-4.285-1.834c-1.716-0.371-3.796-0.615-6.123-0.615H19.054z
	 M31.178,33.304c5.513,0,10.167,0.489,14.084,1.595c3.92,1.103,7.104,2.451,9.554,4.409c2.449,1.839,4.286,4.167,5.389,6.86
	c1.102,2.693,1.714,5.756,1.714,9.062c0,1.836-0.246,3.671-0.859,5.388c-0.49,1.711-1.346,3.308-2.57,4.895
	c-1.103,1.469-2.573,2.942-4.411,4.167c-1.836,1.226-3.919,2.327-6.368,3.184c5.512,1.346,9.676,3.429,12.369,6.371
	c2.694,2.938,4.041,6.855,4.041,11.508c0,3.43-0.612,6.613-1.96,9.676c-1.346,2.94-3.308,5.513-5.879,7.717
	c-2.572,2.205-5.755,3.918-9.429,5.143c-3.674,1.224-8.206,1.717-12.982,1.717H2.15V33.304H31.178z M100.987,55.963
	c4.408,0,8.327,0.733,11.879,2.081c3.551,1.344,6.614,3.43,9.185,5.999c2.572,2.571,4.532,5.756,5.879,9.43
	c1.346,3.673,2.08,7.841,2.08,12.495s-0.734,8.82-2.08,12.49c-1.347,3.675-3.309,6.858-5.879,9.438
	c-2.571,2.571-5.634,4.524-9.185,5.995c-3.552,1.346-7.472,2.08-11.879,2.08c-4.41,0-8.328-0.73-12.004-2.08
	c-3.551-1.341-6.612-3.424-9.185-5.995c-2.57-2.57-4.53-5.754-6-9.438c-1.468-3.665-2.08-7.837-2.08-12.49s0.734-8.819,2.08-12.495
	c1.471-3.671,3.43-6.856,6-9.43c2.573-2.573,5.634-4.533,9.185-5.999C92.536,56.573,96.578,55.963,100.987,55.963z M100.987,104.215
	c4.408,0,7.715-1.471,9.92-4.524c2.083-3.062,3.186-7.596,3.186-13.72c0-6-1.103-10.533-3.186-13.593
	c-2.081-3.059-5.389-4.532-9.92-4.532c-4.532,0-7.839,1.47-10.042,4.532c-2.203,3.06-3.186,7.593-3.186,13.593
	c0,5.999,1.104,10.652,3.186,13.72C93.148,102.623,96.456,104.215,100.987,104.215z M190.88,56.942v58.051h-9.554
	c-1.958,0-3.307-0.856-3.795-2.7l-0.981-4.043c-1.224,1.101-2.327,2.202-3.551,3.059c-1.224,0.985-2.573,1.717-3.919,2.456
	c-1.469,0.731-2.939,1.229-4.532,1.596c-1.593,0.372-3.43,0.616-5.267,0.616c-3.186,0-6.001-0.49-8.449-1.596
	c-2.449-1.097-4.533-2.567-6.123-4.526c-1.593-1.956-2.94-4.283-3.796-6.981c-0.857-2.694-1.346-5.638-1.346-8.937v-36.87h15.554
	v36.864c0,3.186,0.734,5.758,2.205,7.469c1.468,1.713,3.674,2.697,6.613,2.697c2.205,0,4.163-0.49,6.123-1.47
	c1.958-0.982,3.795-2.206,5.513-3.923v-41.76L190.88,56.942L190.88,56.942z M218.07,63.676c1.224-1.103,2.327-2.202,3.673-3.059
	c1.225-0.982,2.573-1.717,4.042-2.453c1.468-0.736,2.938-1.224,4.531-1.593c1.593-0.371,3.43-0.614,5.266-0.614
	c3.186,0,6.001,0.49,8.449,1.595c2.449,1.1,4.533,2.57,6.124,4.53c1.714,1.958,2.939,4.286,3.796,6.981
	c0.858,2.695,1.224,5.637,1.224,8.939v36.991h-15.431V78.124c0-3.184-0.734-5.754-2.205-7.469c-1.469-1.839-3.673-2.695-6.613-2.695
	c-2.205,0-4.163,0.487-6.123,1.344c-1.958,0.982-3.795,2.206-5.512,3.921v41.759h-15.555V56.937h9.552
	c1.959,0,3.308,0.858,3.919,2.694L218.07,63.676z M328.05,114.993h-15.558V68.086h-25.719v30.251c0,1.592,0.369,2.938,1.104,3.797
	c0.734,0.979,1.837,1.346,3.308,1.346c0.734,0,1.346-0.122,1.958-0.245c0.49-0.122,0.98-0.369,1.346-0.611
	c0.367-0.247,0.735-0.368,1.104-0.614c0.367-0.242,0.612-0.242,0.98-0.242c0.49,0,0.858,0.121,1.102,0.367
	c0.247,0.242,0.613,0.61,0.858,1.101l4.654,7.472c-2.08,1.713-4.53,2.938-7.224,3.794c-2.696,0.86-5.513,1.341-8.451,1.341
	c-2.572,0-4.9-0.366-6.981-1.094c-2.082-0.735-3.797-1.845-5.144-3.313c-1.346-1.471-2.451-3.186-3.186-5.139
	c-0.734-2.088-1.102-4.286-1.102-6.855V68.086h-5.512c-0.857,0-1.469-0.247-2.082-0.734c-0.612-0.486-0.857-1.344-0.857-2.327
	v-6.121l9.307-1.717l3.185-15.061c0.369-1.715,1.593-2.574,3.43-2.574h8.084v17.635h41.271v57.806H328.05z M330.499,40.285
	c0,1.224-0.247,2.451-0.735,3.673c-0.481,1.103-1.224,2.081-2.081,2.939c-0.856,0.858-1.959,1.468-3.058,2.085
	c-1.103,0.61-2.452,0.732-3.797,0.732c-1.229,0-2.453-0.244-3.674-0.732c-1.224-0.493-2.2-1.228-3.06-2.085
	c-0.861-0.858-1.594-1.836-2.085-2.939c-0.483-1.1-0.731-2.327-0.731-3.673c0-1.344,0.245-2.574,0.731-3.671
	c0.491-1.101,1.224-2.205,2.085-3.062c0.856-0.856,1.842-1.593,3.06-2.081c1.23-0.488,2.327-0.734,3.674-0.734
	c1.345,0,2.569,0.247,3.797,0.734c1.224,0.488,2.202,1.225,3.058,2.081c0.857,0.861,1.596,1.838,2.081,3.062
	C330.252,37.709,330.499,38.938,330.499,40.285z M378.261,79.109c0-1.595-0.242-3.186-0.612-4.654
	c-0.491-1.469-1.101-2.818-2.082-3.921c-0.979-1.104-2.081-1.957-3.551-2.696c-1.471-0.734-3.184-0.979-5.143-0.979
	c-3.676,0-6.613,1.1-8.698,3.186c-2.08,2.08-3.426,5.142-4.161,9.062L378.261,79.109L378.261,79.109z M353.768,88.293
	c0.489,5.386,2.081,9.429,4.654,12.003c2.574,2.569,5.999,3.797,10.164,3.797c2.083,0,4.042-0.246,5.513-0.735
	c1.469-0.488,2.938-1.103,4.163-1.713c1.224-0.613,2.207-1.228,3.184-1.716c0.982-0.481,1.961-0.732,2.818-0.732
	c1.226,0,2.082,0.492,2.817,1.346l4.524,5.636c-1.595,1.96-3.421,3.551-5.512,4.779c-1.953,1.228-4.04,2.202-6.248,2.94
	c-2.2,0.733-4.282,1.229-6.488,1.471c-2.202,0.243-4.287,0.372-6.371,0.372c-4.04,0-7.837-0.614-11.393-1.959
	c-3.553-1.346-6.609-3.31-9.183-5.88c-2.567-2.571-4.653-5.879-6.125-9.682c-1.466-3.921-2.199-8.322-2.199-13.466
	c0-3.921,0.612-7.715,1.961-11.149c1.341-3.551,3.184-6.49,5.631-9.183c2.453-2.574,5.385-4.654,8.941-6.121
	c3.551-1.47,7.47-2.327,11.881-2.327c3.668,0,7.103,0.61,10.285,1.712c3.186,1.224,5.882,2.941,8.084,5.144
	c2.202,2.203,4.044,5.025,5.269,8.327c1.228,3.306,1.838,6.981,1.838,11.268c0,1.224,0,2.08-0.125,2.814
	c-0.125,0.735-0.245,1.346-0.61,1.838c-0.247,0.489-0.614,0.735-1.103,0.984c-0.489,0.239-0.986,0.239-1.718,0.239h-34.654V88.293z
	 M437.906,68.82c-0.367,0.61-0.856,1.104-1.224,1.344c-0.488,0.247-0.981,0.37-1.716,0.37c-0.732,0-1.47-0.247-2.327-0.61
	c-0.857-0.371-1.713-0.735-2.693-1.228c-0.979-0.492-2.082-0.858-3.306-1.224c-1.224-0.367-2.703-0.612-4.412-0.612
	c-2.569,0-4.416,0.488-5.886,1.593c-1.469,1.102-2.081,2.452-2.081,4.041c0,1.227,0.368,2.083,1.224,2.94
	c0.857,0.855,1.846,1.47,3.184,2.081c1.345,0.614,2.818,1.102,4.419,1.595c1.592,0.49,3.305,1.103,5.135,1.717
	c1.715,0.61,3.426,1.342,5.135,2.081c1.595,0.732,3.187,1.715,4.418,2.941c1.338,1.226,2.327,2.569,3.181,4.286
	c0.732,1.713,1.228,3.67,1.228,5.997c0,2.812-0.482,5.385-1.596,7.841c-0.981,2.328-2.573,4.408-4.527,6.121
	c-1.959,1.717-4.407,3.058-7.469,4.044c-2.942,0.979-6.365,1.471-10.288,1.471c-1.961,0-3.923-0.129-5.886-0.491
	c-1.954-0.365-3.794-0.856-5.634-1.469c-1.715-0.613-3.428-1.471-4.898-2.327c-1.593-0.858-2.81-1.838-4.04-2.817l3.551-5.757
	c0.374-0.731,0.984-1.224,1.595-1.592c0.619-0.369,1.471-0.612,2.457-0.612c0.981,0,1.838,0.243,2.573,0.731
	c0.731,0.491,1.713,0.981,2.694,1.469c0.98,0.491,2.081,1.104,3.43,1.471c1.337,0.488,2.937,0.735,5.021,0.735
	c1.469,0,2.816-0.124,3.919-0.489c1.101-0.368,1.959-0.858,2.695-1.347c0.733-0.61,1.232-1.227,1.47-1.954
	c0.374-0.733,0.489-1.468,0.489-2.327c0-1.229-0.367-2.326-1.226-3.184c-0.856-0.855-1.836-1.47-3.183-2.086
	c-1.347-0.614-2.818-1.098-4.531-1.594c-1.717-0.491-3.422-0.979-5.137-1.594c-1.715-0.61-3.43-1.346-5.145-2.081
	c-1.705-0.855-3.179-1.842-4.408-3.183c-1.341-1.225-2.327-2.817-3.185-4.655c-0.859-1.84-1.224-4.043-1.224-6.738
	c0-2.451,0.483-4.654,1.339-6.856c0.988-2.206,2.327-4.042,4.286-5.757c1.838-1.595,4.165-2.938,6.981-3.921
	c2.815-0.98,6.001-1.466,9.675-1.466c4.173,0,7.837,0.732,11.267,2.081c3.43,1.349,6.125,3.062,8.329,5.269L437.906,68.82z"/>
<path id="Network" fill="#FFFFFF" d="M5.213,130.301c0.247,0,0.491,0,0.735,0s0.367,0.125,0.49,0.125
	c0.122,0.129,0.244,0.129,0.49,0.241c0.122,0.125,0.244,0.368,0.491,0.491l17.635,22.537c-0.124-0.482-0.124-1.104-0.124-1.595
	c0-0.492,0-0.979,0-1.468v-20.454h5.512v33.802h-3.186c-0.49,0-0.856-0.122-1.225-0.244c-0.368-0.124-0.612-0.491-0.98-0.858
	L7.416,140.467c0,0.49,0.122,0.979,0.122,1.468c0,0.489,0,0.981,0,1.35v20.696H2.025v-33.68H5.213L5.213,130.301z M92.658,130.301
	v5.021h-14.94v9.309h11.758v4.778H77.717v9.551H92.66v5.029H71.471v-33.684L92.658,130.301L92.658,130.301z M156.098,130.301v5.142
	h-10.164v28.538h-6.246v-28.538h-10.167v-5.142H156.098z M191.249,130.301h5.266c0.49,0,0.981,0.125,1.347,0.366
	c0.369,0.247,0.612,0.615,0.734,0.982l5.757,20.086c0.121,0.489,0.243,0.985,0.368,1.596c0.122,0.609,0.244,1.229,0.369,1.838
	c0.122-0.609,0.243-1.229,0.365-1.838c0.125-0.614,0.369-1.099,0.491-1.596l6.614-20.086c0.122-0.367,0.367-0.731,0.734-0.982
	c0.369-0.241,0.858-0.488,1.347-0.488h1.837c0.49,0,0.98,0.13,1.346,0.376c0.369,0.237,0.612,0.612,0.734,0.979l6.613,20.084
	c0.365,0.99,0.612,2.093,0.858,3.317c0.122-0.615,0.244-1.225,0.366-1.715c0.124-0.612,0.246-1.103,0.369-1.594l5.756-20.091
	c0.124-0.368,0.369-0.73,0.734-0.979c0.369-0.247,0.859-0.374,1.348-0.374h4.899l-10.41,33.681h-5.634l-7.35-23.027
	c-0.122-0.243-0.244-0.612-0.244-0.98c-0.124-0.369-0.247-0.731-0.247-1.103c-0.122,0.371-0.244,0.733-0.244,1.103
	c-0.125,0.368-0.245,0.612-0.245,0.98l-7.472,23.027h-6L191.249,130.301z M309.678,147.203c0,2.448-0.369,4.775-1.225,6.855
	c-0.858,2.085-1.961,3.92-3.429,5.515c-1.469,1.59-3.308,2.693-5.388,3.551c-2.083,0.856-4.41,1.346-6.981,1.346
	c-2.573,0-4.9-0.489-6.98-1.346c-2.083-0.857-3.919-2.085-5.388-3.551c-1.468-1.596-2.696-3.317-3.43-5.515
	c-0.859-2.08-1.224-4.407-1.224-6.855c0-2.452,0.367-4.779,1.224-6.86c0.858-2.08,1.959-3.918,3.43-5.51
	c1.471-1.59,3.308-2.695,5.388-3.551c2.08-0.856,4.408-1.339,6.98-1.339c2.571,0,4.898,0.482,6.981,1.339
	c2.081,0.855,3.919,2.08,5.388,3.551c1.468,1.471,2.694,3.314,3.429,5.39C309.187,142.3,309.678,144.63,309.678,147.203z
	 M303.187,147.203c0-1.839-0.243-3.551-0.734-5.021c-0.49-1.471-1.224-2.695-2.083-3.675c-0.858-0.978-2.08-1.837-3.308-2.327
	c-1.346-0.491-2.817-0.858-4.408-0.858c-1.592,0-3.185,0.246-4.41,0.858c-1.346,0.49-2.448,1.348-3.306,2.327
	c-0.981,0.979-1.593,2.326-2.082,3.675c-0.49,1.345-0.734,3.062-0.734,5.021c0,1.961,0.245,3.551,0.734,5.021
	c0.491,1.471,1.225,2.695,2.082,3.673c0.979,0.98,2.082,1.837,3.306,2.326c1.348,0.488,2.818,0.859,4.41,0.859
	c1.593,0,3.062-0.246,4.408-0.859c1.346-0.489,2.45-1.346,3.308-2.326c0.859-0.978,1.593-2.202,2.083-3.673
	C302.943,150.633,303.187,149.04,303.187,147.203z M355.36,150.875v13.105h-6.246v-33.68h10.29c2.328,0,4.284,0.245,5.878,0.734
	c1.595,0.482,2.937,1.095,4.04,1.951c1.103,0.858,1.846,1.847,2.327,3.059c0.489,1.226,0.735,2.454,0.735,3.922
	c0,1.104-0.122,2.207-0.489,3.186c-0.366,0.987-0.857,1.96-1.471,2.701c-0.614,0.86-1.346,1.594-2.327,2.198
	c-0.979,0.613-1.959,1.103-3.184,1.471c0.733,0.483,1.471,1.103,2.081,1.958l8.451,12.366h-5.636c-0.489,0-0.978-0.123-1.345-0.367
	c-0.368-0.247-0.731-0.488-0.981-0.985l-7.102-10.778c-0.245-0.367-0.614-0.732-0.856-0.857c-0.368-0.125-0.736-0.237-1.35-0.237
	h-2.815V150.875L355.36,150.875z M355.36,146.347h3.923c1.224,0,2.202-0.125,3.058-0.489c0.856-0.246,1.596-0.73,2.206-1.228
	c0.61-0.49,0.978-1.1,1.224-1.837c0.244-0.733,0.367-1.468,0.367-2.326c0-1.715-0.614-3.061-1.713-3.922
	c-1.095-0.864-2.812-1.344-5.138-1.344h-4.041v11.146H355.36L355.36,146.347z M420.147,144.387h1.47
	c0.614,0,1.104-0.125,1.471-0.247c0.368-0.118,0.735-0.366,0.978-0.73l9.308-11.76c0.376-0.486,0.735-0.857,1.234-0.986
	c0.366-0.237,0.988-0.237,1.593-0.237h5.387l-11.39,13.961c-0.376,0.485-0.73,0.856-0.986,1.098
	c-0.369,0.244-0.731,0.49-1.103,0.732c0.489,0.246,0.986,0.493,1.345,0.731c0.368,0.247,0.858,0.731,1.224,1.35l11.635,15.797
	h-5.511c-0.731,0-1.336-0.126-1.712-0.366c-0.368-0.245-0.615-0.492-0.982-0.984l-9.55-12.366c-0.37-0.372-0.614-0.73-1.103-0.855
	c-0.368-0.126-0.981-0.247-1.594-0.247h-1.958v14.693h-6.248v-33.672h6.248v14.09H420.147L420.147,144.387z"/>
<path id="The" fill="#FFFFFF" d="M196.269,6.361v4.042h-7.962v22.535h-4.897V10.402h-8.084V6.361H196.269z M227.99,32.935h-5.021
	V21.3h-12.494v11.634h-5.022V6.359h5.022v11.388h12.494V6.359h5.021V32.935z M256.158,6.361v3.919H244.4v7.349h9.308v3.797H244.4
	v7.47h11.757v3.921h-16.78V6.241L256.158,6.361L256.158,6.361z"/>
</svg>
