<?xml version="1.0" encoding="utf-8"?>
<!-- Generator: Adobe Illustrator 16.0.4, SVG Export Plug-In . SVG Version: 6.00 Build 0)  -->
<!DOCTYPE svg PUBLIC "-//W3C//DTD SVG 1.1//EN" "http://www.w3.org/Graphics/SVG/1.1/DTD/svg11.dtd">
<svg version="1.1" id="Layer_1" xmlns="http://www.w3.org/2000/svg" xmlns:xlink="http://www.w3.org/1999/xlink" x="0px" y="0px"
	 width="1065.484px" height="171.5px" viewBox="0 0 1065.484 171.5" enable-background="new 0 0 1065.484 171.5"
	 xml:space="preserve">
<g transform="translate(59)">
	<path fill="#FFFFFF" d="M408.582,80.428c0,4.847-3.92,8.775-8.762,8.775c-4.839,0-8.763-3.929-8.763-8.775
		c0-4.845,3.924-8.77,8.763-8.77C404.662,71.658,408.582,75.583,408.582,80.428 M547.821,80.428c0,4.847-3.924,8.775-8.759,8.775
		c-4.84,0-8.764-3.929-8.764-8.775c0-4.845,3.924-8.77,8.764-8.77C543.897,71.658,547.821,75.583,547.821,80.428 M478.201,115.047
		c0,4.846-3.924,8.774-8.761,8.774c-4.839,0-8.763-3.929-8.763-8.774c0-4.845,3.924-8.771,8.763-8.771
		C474.277,106.276,478.201,110.202,478.201,115.047 M443.154,97.977c0,4.843-3.922,8.772-8.763,8.772c-4.839,0-8.76-3.93-8.76-8.772
		c0-4.848,3.921-8.773,8.76-8.773C439.232,89.203,443.154,93.129,443.154,97.977 M512.774,97.977c0,4.843-3.923,8.772-8.762,8.772
		s-8.761-3.93-8.761-8.772c0-4.848,3.922-8.773,8.761-8.773S512.774,93.129,512.774,97.977 M405.74,106.988
		c0,3.27-2.648,5.926-5.917,5.926c-3.273,0-5.923-2.656-5.923-5.926c0-3.276,2.65-5.93,5.923-5.93
		C403.091,101.059,405.74,103.712,405.74,106.988 M544.98,106.988c0,3.27-2.651,5.926-5.919,5.926c-3.271,0-5.921-2.656-5.921-5.926
		c0-3.276,2.649-5.93,5.921-5.93C542.329,101.059,544.98,103.712,544.98,106.988 M475.36,142.073c0,3.275-2.653,5.933-5.919,5.933
		c-3.267,0-5.921-2.657-5.921-5.933c0-3.271,2.654-5.925,5.921-5.925C472.707,136.148,475.36,138.802,475.36,142.073
		 M440.313,124.533c0,3.274-2.65,5.926-5.918,5.926c-3.27,0-5.923-2.651-5.923-5.926c0-3.273,2.653-5.929,5.923-5.929
		C437.663,118.604,440.313,121.26,440.313,124.533 M509.933,124.533c0,3.274-2.652,5.926-5.917,5.926
		c-3.271,0-5.923-2.651-5.923-5.926c0-3.273,2.651-5.929,5.923-5.929C507.28,118.604,509.933,121.26,509.933,124.533
		 M402.898,127.849c0,1.705-1.378,3.085-3.077,3.085c-1.703,0-3.08-1.38-3.08-3.085c0-1.7,1.377-3.08,3.08-3.08
		C401.521,124.769,402.898,126.148,402.898,127.849 M542.14,127.849c0,1.705-1.381,3.085-3.078,3.085c-1.704,0-3.08-1.38-3.08-3.085
		c0-1.7,1.376-3.08,3.08-3.08C540.759,124.769,542.14,126.148,542.14,127.849 M472.518,162.941c0,1.702-1.38,3.084-3.077,3.084
		c-1.7,0-3.079-1.382-3.079-3.084s1.379-3.08,3.079-3.08C471.138,159.861,472.518,161.239,472.518,162.941 M437.472,145.397
		c0,1.7-1.38,3.083-3.08,3.083c-1.698,0-3.078-1.383-3.078-3.083c0-1.705,1.38-3.081,3.078-3.081
		C436.092,142.316,437.472,143.692,437.472,145.397 M507.092,145.397c0,1.7-1.381,3.083-3.076,3.083c-1.706,0-3.08-1.383-3.08-3.083
		c0-1.705,1.374-3.081,3.08-3.081C505.711,142.316,507.092,143.692,507.092,145.397 M481.044,12.855
		c0,6.549-5.303,11.856-11.838,11.856c-6.542,0-11.843-5.307-11.843-11.856C457.363,6.309,462.664,1,469.206,1
		C475.741,1,481.044,6.309,481.044,12.855 M481.044,47.947c0,6.547-5.303,11.855-11.838,11.855c-6.542,0-11.843-5.308-11.843-11.855
		c0-6.546,5.301-11.855,11.843-11.855C475.741,36.092,481.044,41.401,481.044,47.947 M481.044,82.567
		c0,6.544-5.303,11.853-11.838,11.853c-6.542,0-11.843-5.309-11.843-11.853c0-6.55,5.301-11.858,11.843-11.858
		C475.741,70.708,481.044,76.017,481.044,82.567 M550.664,47.947c0,6.547-5.302,11.855-11.84,11.855
		c-6.541,0-11.841-5.308-11.841-11.855c0-6.546,5.3-11.855,11.841-11.855C545.362,36.092,550.664,41.401,550.664,47.947
		 M411.422,47.947c0,6.547-5.299,11.855-11.839,11.855s-11.841-5.308-11.841-11.855c0-6.546,5.301-11.855,11.841-11.855
		S411.422,41.401,411.422,47.947 M446.47,30.401c0,6.546-5.3,11.854-11.84,11.854c-6.54,0-11.84-5.308-11.84-11.854
		c0-6.551,5.3-11.856,11.84-11.856C441.169,18.545,446.47,23.851,446.47,30.401 M446.47,65.018c0,6.548-5.3,11.856-11.84,11.856
		c-6.54,0-11.84-5.308-11.84-11.856c0-6.546,5.3-11.854,11.84-11.854C441.169,53.163,446.47,58.472,446.47,65.018 M516.09,30.401
		c0,6.546-5.302,11.854-11.842,11.854c-6.539,0-11.839-5.308-11.839-11.854c0-6.551,5.3-11.856,11.839-11.856
		C510.788,18.545,516.09,23.851,516.09,30.401 M516.09,65.018c0,6.548-5.302,11.856-11.842,11.856
		c-6.539,0-11.839-5.308-11.839-11.856c0-6.546,5.3-11.854,11.839-11.854C510.788,53.163,516.09,58.472,516.09,65.018"/>
</g>
</svg>
