<?xml version="1.0" encoding="utf-8"?>
<!-- Generator: Adobe Illustrator 16.0.4, SVG Export Plug-In . SVG Version: 6.00 Build 0)  -->
<!DOCTYPE svg PUBLIC "-//W3C//DTD SVG 1.1//EN" "http://www.w3.org/Graphics/SVG/1.1/DTD/svg11.dtd">
<svg version="1.1" id="Layer_1" xmlns="http://www.w3.org/2000/svg" xmlns:xlink="http://www.w3.org/1999/xlink" x="0px" y="0px"
	 width="1065.484px" height="171.5px" viewBox="0 0 1065.484 171.5" enable-background="new 0 0 1065.484 171.5"
	 xml:space="preserve">
<g>
	<path fill="#FFFFFF" d="M471.011,42.894c1.753,1.596,3.505,2.562,5.259,2.562c1.753,0.157,3.191-0.482,4.314-1.92
		c1.271-1.271,1.596-2.709,1.428-4.461c-0.315-1.597-1.271-3.36-3.191-4.956c-1.752-1.595-3.506-2.55-5.259-2.55
		c-1.753-0.158-3.191,0.482-4.314,1.921c-1.112,1.271-1.596,2.866-1.427,4.461C468.135,39.703,469.09,41.299,471.011,42.894z"/>
	<path fill="#FFFFFF" d="M510.73,22.95c1.281,1.122,2.877,1.438,4.63,1.122c1.753-0.482,3.033-1.438,3.831-2.875
		c0.797-1.438,0.956-3.507,0.482-5.9c-0.482-2.393-1.28-4.145-2.718-5.269c-1.271-0.956-2.866-1.438-4.63-0.956
		c-1.752,0.316-3.022,1.281-3.82,2.709c-0.798,1.439-0.967,3.516-0.483,5.909S509.304,21.838,510.73,22.95z"/>
	<path fill="#FFFFFF" d="M521.27,148.199c-1.764-0.158-3.359,0.324-4.472,1.596c-1.112,1.279-1.909,3.033-2.078,5.427
		c-0.157,2.393,0.169,4.313,1.122,5.742c0.956,1.438,2.237,2.234,4.146,2.393c1.596,0.167,3.034-0.315,4.147-1.595
		c1.123-1.271,1.921-3.025,2.077-5.419c0.158-2.393-0.156-4.313-0.954-5.75C524.293,149.163,523.022,148.366,521.27,148.199z"/>
	<path fill="#FFFFFF" d="M525.415,74.006c-1.122,0.326-1.92,0.799-2.718,1.439c-0.629,0.641-1.271,1.438-1.752,2.235
		c-0.474,0.956-0.642,1.91-0.798,2.876c0,1.112-0.159,2.225-0.159,3.348c0,2.236,0.483,4.147,1.281,5.9
		c0.799,1.754,2.226,3.033,4.146,3.673V74.006z"/>
	<path fill="#FFFFFF" d="M540.249,14.815c0.964-0.315,1.438-0.956,1.595-2.236c0.167-1.271-0.157-2.226-0.797-2.866
		c-0.474-0.156-1.113-0.482-2.069-0.641l-4.944-0.639l-0.798,5.74l4.787,0.642C538.978,14.973,539.775,14.973,540.249,14.815z"/>
	<polygon fill="#FFFFFF" points="563.384,18.646 556.844,24.714 561.788,27.422 	"/>
	<path fill="#FFFFFF" d="M595.776,52.95c-1.595-0.483-3.506-0.314-5.899,0.64c-2.394,0.955-3.831,2.068-4.63,3.664
		c-0.797,1.438-0.955,3.033-0.157,4.786c0.797,1.596,1.911,2.562,3.507,3.034c1.595,0.482,3.507,0.325,5.9-0.641
		c2.235-0.955,3.83-2.068,4.628-3.664c0.799-1.438,0.956-3.033,0.159-4.629C598.652,54.545,597.372,53.433,595.776,52.95z"/>
	<path fill="#FFFFFF" d="M528.044,0.16c-47.313,0-85.671,38.357-85.671,85.67c0,47.313,38.357,85.67,85.671,85.67
		c47.312,0,85.669-38.356,85.669-85.67C613.713,38.518,575.356,0.16,528.044,0.16z M563.55,13.062l4.463,2.393l-3.508,22.652
		l-4.312-2.394l0.799-4.618l-7.015-3.832l-3.357,3.191l-4.146-2.236L563.55,13.062z M530.202,4.129l10.213,1.438
		c1.596,0.157,2.551,0.473,3.349,0.954c0.798,0.473,1.272,1.114,1.754,1.754c0.315,0.64,0.64,1.281,0.798,1.91
		c0.157,0.641,0.157,1.438,0,2.236c0,1.279-0.316,2.235-1.113,3.033c-0.641,0.956-1.597,1.438-2.876,1.754
		c0.956,0.481,1.596,1.279,1.911,1.92c0.324,0.799,0.324,1.91,0.167,3.506l-0.167,1.438c-0.157,0.956-0.157,1.596-0.157,2.068
		c0,0.642,0.324,0.967,0.64,1.281v0.482l-4.944-0.641c0-0.481-0.158-0.955-0.158-1.123c0-0.629,0-1.27,0-1.91l0.316-2.078
		c0.157-1.428,0-2.394-0.316-2.866c-0.324-0.482-1.279-0.798-2.394-1.122l-4.312-0.631l-1.113,8.451l-4.629-0.473L530.202,4.129z
		 M504.989,9.072c1.28-1.909,3.517-3.19,6.539-3.83c3.034-0.641,5.585-0.158,7.505,1.123c2.551,1.596,4.146,4.304,4.945,8.135
		c0.797,3.832,0.314,7.023-1.438,9.416c-1.271,1.91-3.507,3.191-6.54,3.82c-3.033,0.641-5.584,0.168-7.494-1.113
		c-2.562-1.595-4.157-4.303-4.955-8.135C502.754,14.657,503.236,11.467,504.989,9.072z M485.045,16.253l8.775,15.473l9.416-5.417
		l1.91,3.349l-13.395,7.651l-10.695-18.82L485.045,16.253z M466.381,30.928c2.068-2.225,4.305-3.506,6.541-3.664
		c2.875-0.324,5.898,0.798,8.774,3.507c3.033,2.719,4.472,5.427,4.629,8.46c0.158,2.393-0.798,4.629-2.875,7.022
		c-2.068,2.226-4.306,3.507-6.54,3.663c-3.033,0.326-5.899-0.955-8.934-3.506c-3.033-2.719-4.471-5.427-4.471-8.46
		C463.348,35.558,464.304,33.32,466.381,30.928z M467.494,69.062c-2.551,0.955-5.428,0.641-8.618-0.64
		c-3.82-1.429-6.057-3.349-7.337-6.058c-0.955-2.235-0.955-4.629,0-7.18c1.28-3.348,3.348-5.426,6.225-6.066
		c1.596-0.316,3.033-0.316,4.303,0.156l-1.595,4.157c-1.112-0.168-1.91,0-2.55,0.157c-1.114,0.473-2.068,1.27-2.551,2.865
		c-0.641,1.439-0.484,2.877,0.482,4.314c0.954,1.271,2.394,2.551,4.787,3.35c2.225,0.955,4.146,1.111,5.584,0.64
		c1.427-0.482,2.55-1.438,3.022-2.876c0.642-1.438,0.483-2.709-0.157-3.832c-0.315-0.629-0.955-1.27-1.911-1.91l1.596-4.146
		c2.068,1.271,3.507,2.865,4.305,4.945c0.798,2.078,0.798,4.146-0.157,6.539C471.809,66.354,469.889,68.266,467.494,69.062z
		 M507.708,149.479l-4.314-1.595c0.157-1.114,0-1.911-0.315-2.552c-0.482-1.121-1.438-2.076-2.875-2.551
		c-1.596-0.482-2.866-0.324-4.305,0.632c-1.28,0.963-2.394,2.56-3.191,4.786c-0.797,2.235-0.955,4.155-0.481,5.584
		c0.481,1.438,1.438,2.394,2.875,3.033c1.438,0.482,2.708,0.482,3.832-0.314c0.629-0.325,1.271-0.957,1.91-1.921l4.304,1.596
		c-1.113,2.077-2.709,3.516-4.787,4.471c-2.068,0.799-4.145,0.799-6.539,0c-2.865-1.112-4.785-2.874-5.741-5.268
		c-0.956-2.552-0.798-5.419,0.314-8.61c1.438-3.83,3.358-6.224,5.909-7.346c2.236-1.113,4.63-1.113,7.18-0.315
		c3.35,1.279,5.428,3.19,6.226,6.066C508.181,146.77,508.181,148.199,507.708,149.479z M530.842,156.502
		c-0.323,4.146-1.762,7.021-4.155,8.775c-1.753,1.595-4.146,2.068-7.337,1.752c-3.034-0.315-5.428-1.438-6.855-3.19
		c-1.92-2.235-2.718-5.269-2.393-9.258c0.314-3.988,1.752-6.854,4.146-8.608c1.753-1.597,4.146-2.077,7.337-1.92
		c3.033,0.323,5.428,1.438,6.864,3.191C530.36,149.479,531.158,152.512,530.842,156.502z M536.261,166.714l-3.025-21.382l4.462-0.64
		l3.033,21.382L536.261,166.714z M560.359,160.165l-13.247-11.642l4.945,14.518l-3.989,1.279l-7.021-20.268l4.471-1.596
		l12.922,11.493l-4.786-14.359l3.988-1.438l7.022,20.584L560.359,160.165z M521.27,96.345c-1.438-0.474-2.562-1.271-3.674-2.394
		c-1.112-0.955-1.91-2.393-2.551-3.822c-0.641-1.596-0.955-3.515-0.955-5.752c0-3.348,0.955-6.213,2.866-8.449
		c1.921-2.236,4.786-3.674,8.459-4.146V69.22c0-0.314,0.158-0.473,0.315-0.63c0.326-0.167,0.482-0.167,0.799-0.167
		c0.324,0,0.64,0.167,0.797,0.167c0.325,0.157,0.325,0.315,0.325,0.473v2.719h0.157c1.114,0,2.069,0.156,3.033,0.314
		c0.956,0.315,1.911,0.641,2.709,1.113c0.798,0.482,1.438,1.123,1.911,1.764c0.482,0.629,0.799,1.428,0.799,2.393
		c0,0.631-0.159,1.271-0.632,1.753c-0.482,0.473-1.122,0.798-2.078,0.798c-0.798,0-1.438-0.156-1.911-0.482
		c-0.481-0.315-0.798-0.955-0.798-1.596c0-0.473,0.158-0.955,0.474-1.27c0.324-0.325,0.482-0.641,0.482-0.967
		c0-0.629-0.482-1.112-1.279-1.427c-0.799-0.325-1.754-0.483-2.867-0.483v20.26h0.631c1.28,0,2.56-0.157,3.831-0.632
		c1.28-0.323,2.235-1.121,3.191-2.235c0.157-0.157,0.324-0.323,0.482-0.323c0.157,0,0.314,0,0.474,0.166
		c0.166,0.157,0.323,0.157,0.481,0.316c0.158,0.157,0.158,0.315,0,0.481c-0.798,1.753-2.077,3.191-3.673,3.988
		c-1.596,0.799-3.507,1.43-5.418,1.43v4.629c0,0.323-0.167,0.482-0.325,0.64c-0.314,0.158-0.473,0.158-0.797,0.158
		c-0.316,0-0.641-0.158-0.799-0.158c-0.315-0.157-0.315-0.316-0.315-0.481v-4.621C523.979,97.143,522.54,96.827,521.27,96.345z
		 M527.169,57.736c-15.473,0-27.922,12.449-27.922,27.922c0,15.474,12.606,27.922,27.922,27.922c11.65,0,21.697-7.338,25.844-17.551
		l25.853,10.371c-8.136,20.426-28.246,34.943-51.696,34.943c-30.798,0-55.844-24.889-55.844-55.686
		c0-30.799,25.046-55.686,55.844-55.686c23.45,0,43.395,14.517,51.696,34.943l-25.853,10.371
		C548.866,64.916,538.978,57.736,527.169,57.736z M572.159,46.41l-6.058-7.021l16.271-14.36l6.224,7.022
		c0.798,0.955,1.438,1.911,1.753,2.709c0.64,1.438,0.799,3.033,0.324,4.629c-0.324,1.28-0.797,2.393-1.595,3.505
		c-0.799,1.124-1.596,1.921-2.394,2.719c-2.235,1.911-4.312,3.034-6.706,3.507C576.946,49.76,574.237,48.803,572.159,46.41z
		 M596.092,68.747c-3.507,1.438-6.697,1.438-9.406,0.315c-2.235-0.797-3.831-2.708-5.11-5.584c-1.114-2.865-1.271-5.428-0.316-7.495
		c1.114-2.876,3.349-4.943,7.021-6.383c3.665-1.437,6.856-1.595,9.574-0.325c2.227,0.799,3.821,2.719,4.943,5.584
		c1.114,2.877,1.271,5.428,0.316,7.506C602.158,65.074,599.765,67.311,596.092,68.747z"/>
	<path fill="#FFFFFF" d="M585.09,33.962l-2.717-3.191l-10.529,9.415l2.709,3.191c1.438,1.596,3.19,2.078,5.269,1.28
		c1.113-0.482,2.393-1.122,3.507-2.235c1.596-1.438,2.718-2.876,3.19-4.146C587.001,36.994,586.519,35.558,585.09,33.962z"/>
</g>
</svg>
