<?xml version="1.0" encoding="utf-8"?>
<!-- Generator: Adobe Illustrator 16.0.4, SVG Export Plug-In . SVG Version: 6.00 Build 0)  -->
<!DOCTYPE svg PUBLIC "-//W3C//DTD SVG 1.1//EN" "http://www.w3.org/Graphics/SVG/1.1/DTD/svg11.dtd">
<svg version="1.1" id="Layer_1" xmlns="http://www.w3.org/2000/svg" xmlns:xlink="http://www.w3.org/1999/xlink" x="0px" y="0px"
	 width="628.375px" height="171.5px" viewBox="0 0 628.375 171.5" enable-background="new 0 0 628.375 171.5" xml:space="preserve">
<path fill="#FFFFFF" d="M198.447,109.557c0,23.838-17.007,41.172-40.211,41.172c-23.043,0-40.048-17.316-40.048-41.172
	c0-23.684,16.994-41.005,40.048-41.005C181.439,68.552,198.447,85.873,198.447,109.557z M179.854,109.557
	c0-16.053-10.172-24.32-21.619-24.32c-11.283,0-21.615,8.267-21.615,24.32c0,16.051,10.332,24.633,21.615,24.633
	C169.679,134.189,179.854,125.768,179.854,109.557z"/>
<path fill="#FFFFFF" d="M243.114,150.626c-23.733,0-33.981-13.735-33.981-30.896V70.933h18.425v44.737
	c0,9.535,4.456,17.643,15.577,17.643c10.65,0,16.208-7.148,16.208-17.315V70.933h18.438l-0.088,48.92
	C277.696,137.115,268.106,150.626,243.114,150.626z"/>
<path fill="#FFFFFF" d="M400.343,70.933h16.056v16.372h-16.056l-0.121,37.705c0,3.694,2.835,7.422,7.585,7.422
	c3.388,0,4.209,0,8.462,0.062v16.777c-2.868,0.219-10.153,0-16.818,0c-8.802,0-17.368-6.672-17.368-16.998l-0.021-44.979h-14.305
	v-16.37h3.985c8.265,0,11.92-5.245,11.92-12.077V47.252h16.688L400.343,70.933L400.343,70.933z"/>
<path fill="#FFFFFF" d="M435.634,31.676c6.663,0,12.08,5.407,12.08,12.08c0,6.678-5.417,11.92-12.08,11.92
	c-6.527,0-11.932-5.24-11.932-11.92C423.711,37.083,429.115,31.676,435.634,31.676z M426.575,148.339V70.93h18.288v77.409H426.575z"
	/>
<path fill="#FFFFFF" d="M529.748,126.244c-4.131,13.505-16.368,24.47-34.966,24.47c-20.979,0-39.574-15.255-39.574-41.483
	c0-24.473,18.104-40.688,37.662-40.688c23.842,0,37.827,15.736,37.827,40.208c0,3.023-0.318,5.561-0.479,5.884h-56.581
	c0.493,11.765,9.708,20.179,21.151,20.179c11.127,0,16.848-5.886,19.39-13.508L529.748,126.244z M512.107,101.133
	c-0.321-9.061-6.359-17.168-19.072-17.168c-11.604,0-18.291,8.9-18.912,17.168H512.107z"/>
<path fill="#FFFFFF" d="M553.84,121.288c0.633,6.987,5.908,14.83,15.764,14.83c7.63,0,11.602-4.136,11.602-8.901
	c0-4.136-2.862-7.314-9.061-8.589l-11.443-2.541c-13.667-3.024-20.818-11.933-20.818-22.567c0-13.52,12.384-24.962,28.437-24.962
	c21.613,0,27.228,11.88,27.271,21.561v5.228l-15.754-0.059c-0.138-7.094-1.185-12.261-11.518-12.261
	c-6.518,0-11.124,4.128-11.124,8.901c0,4.13,3.025,7.153,7.786,8.104l11.76,2.377c14.623,3.177,22.252,12.072,22.252,23.517
	c0,11.765-9.523,24.796-29.245,24.796c-22.406,0-31.122-15.729-32.07-24.486L553.84,121.288z"/>
<g>
	
		<linearGradient id="SVGID_1_" gradientUnits="userSpaceOnUse" x1="1160.6387" y1="-1598.5254" x2="1160.6387" y2="-1556.0466" gradientTransform="matrix(1 0 0 -1 -630 -1527.1797)">
		<stop  offset="0" style="stop-color:#FFD500"/>
		<stop  offset="0.984" style="stop-color:#FFD500"/>
	</linearGradient>
	<path fill="url(#SVGID_1_)" d="M530.609,51.354c2.145,0,3.894,1.752,3.894,3.884c0,2.133-1.749,3.84-3.894,3.84
		c-2.136,0-3.837-1.707-3.837-3.84C526.771,53.106,528.477,51.354,530.609,51.354z"/>
	
		<linearGradient id="SVGID_2_" gradientUnits="userSpaceOnUse" x1="1179.4346" y1="-1598.5107" x2="1179.4346" y2="-1556.0601" gradientTransform="matrix(1 0 0 -1 -630 -1527.1797)">
		<stop  offset="0" style="stop-color:#FFD500"/>
		<stop  offset="0.984" style="stop-color:#FFD500"/>
	</linearGradient>
	<path fill="url(#SVGID_2_)" d="M560.4,52.206c-1.231,4.026-4.879,7.294-10.408,7.294c-6.252,0-11.807-4.546-11.807-12.36
		c0-7.294,5.396-12.125,11.224-12.125c7.104,0,11.272,4.687,11.272,11.981c0,0.902-0.093,1.66-0.141,1.752h-16.874
		c0.158,3.505,2.892,6.015,6.312,6.015c3.314,0,5.01-1.755,5.774-4.025L560.4,52.206z M555.14,44.725
		c-0.083-2.698-1.892-5.116-5.67-5.116c-3.464,0-5.444,2.655-5.635,5.116H555.14z"/>
	
		<linearGradient id="SVGID_3_" gradientUnits="userSpaceOnUse" x1="1198.7207" y1="-1598.5127" x2="1198.7207" y2="-1556.0554" gradientTransform="matrix(1 0 0 -1 -630 -1527.1797)">
		<stop  offset="0" style="stop-color:#FFD500"/>
		<stop  offset="0.984" style="stop-color:#FFD500"/>
	</linearGradient>
	<path fill="url(#SVGID_3_)" d="M571.152,35.725h4.782v4.879h-4.782V51.31c0,2.036,0.898,2.889,2.936,2.889
		c0.755,0,1.66-0.144,1.895-0.188v4.546c-0.33,0.142-1.377,0.521-3.36,0.521c-4.249,0-6.901-2.56-6.901-6.869V40.604h-4.264v-4.879
		h1.183c2.466,0,3.554-1.564,3.554-3.596v-3.461h4.973L571.152,35.725L571.152,35.725z"/>
	
		<linearGradient id="SVGID_4_" gradientUnits="userSpaceOnUse" x1="1219.4053" y1="-1598.5176" x2="1219.4053" y2="-1556.0638" gradientTransform="matrix(1 0 0 -1 -630 -1527.1797)">
		<stop  offset="0" style="stop-color:#FFD500"/>
		<stop  offset="0.984" style="stop-color:#FFD500"/>
	</linearGradient>
	<path fill="url(#SVGID_4_)" d="M584.649,58.789h-5.492V24.501h5.492v13.453c1.563-2.036,4.17-2.894,6.583-2.894
		c5.668,0,8.419,4.075,8.419,9.142v14.587h-5.494V45.15c0-2.84-1.269-5.116-4.737-5.116c-3.023,0-4.675,2.276-4.78,5.208
		L584.649,58.789L584.649,58.789z"/>
</g>
<path fill="#FFFFFF" d="M325.409,66.619c23.733,0,33.979,13.736,33.979,30.898v48.791h-18.425v-44.731
	c0-9.53-4.456-17.644-15.574-17.644c-10.648,0-16.211,7.153-16.211,17.316v45.053h-18.441l0.096-48.921
	C290.825,80.133,300.417,66.619,325.409,66.619z"/>
<path fill="#FFFFFF" d="M64.399,26.058c23.974,0,34.636,16.67,34.636,30.317c0,13.182-8.428,22.497-8.428,22.497
	c7.972,6.255,18.425,16.246,18.425,32.412c0,21.128-16.218,40.034-37.929,40.034c-14.248-0.27-40.731,0-40.731,0
	c-0.095-8.971-0.053-4.655,0.42-125.26H64.399z M60.752,75.134h4.354c9.775,0,14.665-10.154,14.665-17.071
	c0-6.346-5.552-14.841-14.833-14.841h-16.45v31.912v0.43v14.971c0,0,0,40.381,0,45.523c0-0.004,11.208,0.109,20.347,0
	c9.752-0.285,21.445-11.039,21.276-23.354c-0.164-12.107-10.583-22.064-20.975-22.064l-8.384-0.056V75.134z"/>
</svg>
